<mxfile host="app.diagrams.net" agent="Mozilla/5.0 (Windows NT 10.0; Win64; x64) AppleWebKit/537.36 (KHTML, like Gecko) Chrome/131.0.0.0 Safari/537.36" version="25.0.3" pages="4">
  <diagram name="v.1.0" id="3vZlzGnfS_EGk99yp8Wl">
    <mxGraphModel dx="2218" dy="1220" grid="0" gridSize="10" guides="1" tooltips="1" connect="0" arrows="1" fold="1" page="0" pageScale="1" pageWidth="827" pageHeight="1169" math="0" shadow="0">
      <root>
        <mxCell id="0" />
        <mxCell id="1" parent="0" />
        <mxCell id="SIO9TbtsdNupXH5esDP5-85" style="edgeStyle=orthogonalEdgeStyle;rounded=0;orthogonalLoop=1;jettySize=auto;html=1;endArrow=open;endFill=0;" parent="1" source="SIO9TbtsdNupXH5esDP5-1" target="SIO9TbtsdNupXH5esDP5-61" edge="1">
          <mxGeometry relative="1" as="geometry" />
        </mxCell>
        <mxCell id="SIO9TbtsdNupXH5esDP5-1" value="User" style="swimlane;fontStyle=1;align=center;verticalAlign=top;childLayout=stackLayout;horizontal=1;startSize=26;horizontalStack=0;resizeParent=1;resizeParentMax=0;resizeLast=0;collapsible=1;marginBottom=0;whiteSpace=wrap;html=1;" parent="1" vertex="1">
          <mxGeometry x="200" y="631" width="160" height="242" as="geometry" />
        </mxCell>
        <mxCell id="SIO9TbtsdNupXH5esDP5-2" value="- name: string" style="text;strokeColor=none;fillColor=none;align=left;verticalAlign=top;spacingLeft=4;spacingRight=4;overflow=hidden;rotatable=0;points=[[0,0.5],[1,0.5]];portConstraint=eastwest;whiteSpace=wrap;html=1;" parent="SIO9TbtsdNupXH5esDP5-1" vertex="1">
          <mxGeometry y="26" width="160" height="26" as="geometry" />
        </mxCell>
        <mxCell id="SIO9TbtsdNupXH5esDP5-17" value="- surname: string" style="text;strokeColor=none;fillColor=none;align=left;verticalAlign=top;spacingLeft=4;spacingRight=4;overflow=hidden;rotatable=0;points=[[0,0.5],[1,0.5]];portConstraint=eastwest;whiteSpace=wrap;html=1;" parent="SIO9TbtsdNupXH5esDP5-1" vertex="1">
          <mxGeometry y="52" width="160" height="26" as="geometry" />
        </mxCell>
        <mxCell id="SIO9TbtsdNupXH5esDP5-18" value="- email: string" style="text;strokeColor=none;fillColor=none;align=left;verticalAlign=top;spacingLeft=4;spacingRight=4;overflow=hidden;rotatable=0;points=[[0,0.5],[1,0.5]];portConstraint=eastwest;whiteSpace=wrap;html=1;" parent="SIO9TbtsdNupXH5esDP5-1" vertex="1">
          <mxGeometry y="78" width="160" height="26" as="geometry" />
        </mxCell>
        <mxCell id="SIO9TbtsdNupXH5esDP5-19" value="- password: string" style="text;strokeColor=none;fillColor=none;align=left;verticalAlign=top;spacingLeft=4;spacingRight=4;overflow=hidden;rotatable=0;points=[[0,0.5],[1,0.5]];portConstraint=eastwest;whiteSpace=wrap;html=1;" parent="SIO9TbtsdNupXH5esDP5-1" vertex="1">
          <mxGeometry y="104" width="160" height="26" as="geometry" />
        </mxCell>
        <mxCell id="SIO9TbtsdNupXH5esDP5-3" value="" style="line;strokeWidth=1;fillColor=none;align=left;verticalAlign=middle;spacingTop=-1;spacingLeft=3;spacingRight=3;rotatable=0;labelPosition=right;points=[];portConstraint=eastwest;strokeColor=inherit;" parent="SIO9TbtsdNupXH5esDP5-1" vertex="1">
          <mxGeometry y="130" width="160" height="8" as="geometry" />
        </mxCell>
        <mxCell id="SIO9TbtsdNupXH5esDP5-4" value="// getter &amp;amp; setter" style="text;strokeColor=none;fillColor=none;align=left;verticalAlign=top;spacingLeft=4;spacingRight=4;overflow=hidden;rotatable=0;points=[[0,0.5],[1,0.5]];portConstraint=eastwest;whiteSpace=wrap;html=1;" parent="SIO9TbtsdNupXH5esDP5-1" vertex="1">
          <mxGeometry y="138" width="160" height="26" as="geometry" />
        </mxCell>
        <mxCell id="SIO9TbtsdNupXH5esDP5-140" value="+ login(email, password)" style="text;strokeColor=none;fillColor=none;align=left;verticalAlign=top;spacingLeft=4;spacingRight=4;overflow=hidden;rotatable=0;points=[[0,0.5],[1,0.5]];portConstraint=eastwest;whiteSpace=wrap;html=1;" parent="SIO9TbtsdNupXH5esDP5-1" vertex="1">
          <mxGeometry y="164" width="160" height="26" as="geometry" />
        </mxCell>
        <mxCell id="SIO9TbtsdNupXH5esDP5-141" value="+ logout()" style="text;strokeColor=none;fillColor=none;align=left;verticalAlign=top;spacingLeft=4;spacingRight=4;overflow=hidden;rotatable=0;points=[[0,0.5],[1,0.5]];portConstraint=eastwest;whiteSpace=wrap;html=1;" parent="SIO9TbtsdNupXH5esDP5-1" vertex="1">
          <mxGeometry y="190" width="160" height="26" as="geometry" />
        </mxCell>
        <mxCell id="SIO9TbtsdNupXH5esDP5-142" value="+ makeOffer()" style="text;strokeColor=none;fillColor=none;align=left;verticalAlign=top;spacingLeft=4;spacingRight=4;overflow=hidden;rotatable=0;points=[[0,0.5],[1,0.5]];portConstraint=eastwest;whiteSpace=wrap;html=1;" parent="SIO9TbtsdNupXH5esDP5-1" vertex="1">
          <mxGeometry y="216" width="160" height="26" as="geometry" />
        </mxCell>
        <mxCell id="SIO9TbtsdNupXH5esDP5-87" style="edgeStyle=orthogonalEdgeStyle;rounded=0;orthogonalLoop=1;jettySize=auto;html=1;endArrow=block;endFill=0;" parent="1" source="SIO9TbtsdNupXH5esDP5-5" target="SIO9TbtsdNupXH5esDP5-9" edge="1">
          <mxGeometry relative="1" as="geometry" />
        </mxCell>
        <mxCell id="SIO9TbtsdNupXH5esDP5-5" value="Admin" style="swimlane;fontStyle=1;align=center;verticalAlign=top;childLayout=stackLayout;horizontal=1;startSize=26;horizontalStack=0;resizeParent=1;resizeParentMax=0;resizeLast=0;collapsible=1;marginBottom=0;whiteSpace=wrap;html=1;" parent="1" vertex="1">
          <mxGeometry x="166" y="1307" width="228" height="60" as="geometry" />
        </mxCell>
        <mxCell id="SIO9TbtsdNupXH5esDP5-7" value="" style="line;strokeWidth=1;fillColor=none;align=left;verticalAlign=middle;spacingTop=-1;spacingLeft=3;spacingRight=3;rotatable=0;labelPosition=right;points=[];portConstraint=eastwest;strokeColor=inherit;" parent="SIO9TbtsdNupXH5esDP5-5" vertex="1">
          <mxGeometry y="26" width="228" height="8" as="geometry" />
        </mxCell>
        <mxCell id="SIO9TbtsdNupXH5esDP5-8" value="+ addManager(Manager): void" style="text;strokeColor=none;fillColor=none;align=left;verticalAlign=top;spacingLeft=4;spacingRight=4;overflow=hidden;rotatable=0;points=[[0,0.5],[1,0.5]];portConstraint=eastwest;whiteSpace=wrap;html=1;" parent="SIO9TbtsdNupXH5esDP5-5" vertex="1">
          <mxGeometry y="34" width="228" height="26" as="geometry" />
        </mxCell>
        <mxCell id="SIO9TbtsdNupXH5esDP5-86" style="edgeStyle=orthogonalEdgeStyle;rounded=0;orthogonalLoop=1;jettySize=auto;html=1;endArrow=block;endFill=0;" parent="1" source="SIO9TbtsdNupXH5esDP5-9" target="SIO9TbtsdNupXH5esDP5-13" edge="1">
          <mxGeometry relative="1" as="geometry">
            <mxPoint x="589" y="971" as="targetPoint" />
          </mxGeometry>
        </mxCell>
        <mxCell id="SIO9TbtsdNupXH5esDP5-9" value="Manager" style="swimlane;fontStyle=1;align=center;verticalAlign=top;childLayout=stackLayout;horizontal=1;startSize=26;horizontalStack=0;resizeParent=1;resizeParentMax=0;resizeLast=0;collapsible=1;marginBottom=0;whiteSpace=wrap;html=1;" parent="1" vertex="1">
          <mxGeometry x="160" y="1202" width="240" height="60" as="geometry" />
        </mxCell>
        <mxCell id="SIO9TbtsdNupXH5esDP5-11" value="" style="line;strokeWidth=1;fillColor=none;align=left;verticalAlign=middle;spacingTop=-1;spacingLeft=3;spacingRight=3;rotatable=0;labelPosition=right;points=[];portConstraint=eastwest;strokeColor=inherit;" parent="SIO9TbtsdNupXH5esDP5-9" vertex="1">
          <mxGeometry y="26" width="240" height="8" as="geometry" />
        </mxCell>
        <mxCell id="SIO9TbtsdNupXH5esDP5-12" value="+ addEmployee(Employee): void" style="text;strokeColor=none;fillColor=none;align=left;verticalAlign=top;spacingLeft=4;spacingRight=4;overflow=hidden;rotatable=0;points=[[0,0.5],[1,0.5]];portConstraint=eastwest;whiteSpace=wrap;html=1;" parent="SIO9TbtsdNupXH5esDP5-9" vertex="1">
          <mxGeometry y="34" width="240" height="26" as="geometry" />
        </mxCell>
        <mxCell id="SIO9TbtsdNupXH5esDP5-88" style="edgeStyle=orthogonalEdgeStyle;rounded=0;orthogonalLoop=1;jettySize=auto;html=1;endArrow=block;endFill=0;" parent="1" source="SIO9TbtsdNupXH5esDP5-13" target="SIO9TbtsdNupXH5esDP5-1" edge="1">
          <mxGeometry relative="1" as="geometry" />
        </mxCell>
        <mxCell id="SIO9TbtsdNupXH5esDP5-13" value="Employee" style="swimlane;fontStyle=1;align=center;verticalAlign=top;childLayout=stackLayout;horizontal=1;startSize=26;horizontalStack=0;resizeParent=1;resizeParentMax=0;resizeLast=0;collapsible=1;marginBottom=0;whiteSpace=wrap;html=1;" parent="1" vertex="1">
          <mxGeometry x="161" y="985" width="238" height="138" as="geometry" />
        </mxCell>
        <mxCell id="SIO9TbtsdNupXH5esDP5-15" value="" style="line;strokeWidth=1;fillColor=none;align=left;verticalAlign=middle;spacingTop=-1;spacingLeft=3;spacingRight=3;rotatable=0;labelPosition=right;points=[];portConstraint=eastwest;strokeColor=inherit;" parent="SIO9TbtsdNupXH5esDP5-13" vertex="1">
          <mxGeometry y="26" width="238" height="8" as="geometry" />
        </mxCell>
        <mxCell id="SIO9TbtsdNupXH5esDP5-16" value="+ addEstate(Estate): void" style="text;strokeColor=none;fillColor=none;align=left;verticalAlign=top;spacingLeft=4;spacingRight=4;overflow=hidden;rotatable=0;points=[[0,0.5],[1,0.5]];portConstraint=eastwest;whiteSpace=wrap;html=1;" parent="SIO9TbtsdNupXH5esDP5-13" vertex="1">
          <mxGeometry y="34" width="238" height="26" as="geometry" />
        </mxCell>
        <mxCell id="SIO9TbtsdNupXH5esDP5-137" value="+ removeEstate(Estate): void" style="text;strokeColor=none;fillColor=none;align=left;verticalAlign=top;spacingLeft=4;spacingRight=4;overflow=hidden;rotatable=0;points=[[0,0.5],[1,0.5]];portConstraint=eastwest;whiteSpace=wrap;html=1;" parent="SIO9TbtsdNupXH5esDP5-13" vertex="1">
          <mxGeometry y="60" width="238" height="26" as="geometry" />
        </mxCell>
        <mxCell id="SIO9TbtsdNupXH5esDP5-138" value="+ updateEstate(Estate): void" style="text;strokeColor=none;fillColor=none;align=left;verticalAlign=top;spacingLeft=4;spacingRight=4;overflow=hidden;rotatable=0;points=[[0,0.5],[1,0.5]];portConstraint=eastwest;whiteSpace=wrap;html=1;" parent="SIO9TbtsdNupXH5esDP5-13" vertex="1">
          <mxGeometry y="86" width="238" height="26" as="geometry" />
        </mxCell>
        <mxCell id="SIO9TbtsdNupXH5esDP5-135" value="+ manageOffert(Estate): void" style="text;strokeColor=none;fillColor=none;align=left;verticalAlign=top;spacingLeft=4;spacingRight=4;overflow=hidden;rotatable=0;points=[[0,0.5],[1,0.5]];portConstraint=eastwest;whiteSpace=wrap;html=1;" parent="SIO9TbtsdNupXH5esDP5-13" vertex="1">
          <mxGeometry y="112" width="238" height="26" as="geometry" />
        </mxCell>
        <mxCell id="SIO9TbtsdNupXH5esDP5-89" style="edgeStyle=orthogonalEdgeStyle;rounded=0;orthogonalLoop=1;jettySize=auto;html=1;endArrow=open;endFill=0;" parent="1" source="SIO9TbtsdNupXH5esDP5-22" target="SIO9TbtsdNupXH5esDP5-38" edge="1">
          <mxGeometry relative="1" as="geometry" />
        </mxCell>
        <mxCell id="SIO9TbtsdNupXH5esDP5-114" style="rounded=0;orthogonalLoop=1;jettySize=auto;html=1;endArrow=open;endFill=0;startArrow=open;startFill=0;exitX=0;exitY=0.5;exitDx=0;exitDy=0;" parent="1" source="SIO9TbtsdNupXH5esDP5-29" target="SIO9TbtsdNupXH5esDP5-105" edge="1">
          <mxGeometry relative="1" as="geometry" />
        </mxCell>
        <mxCell id="SIO9TbtsdNupXH5esDP5-22" value="Estate" style="swimlane;fontStyle=1;align=center;verticalAlign=top;childLayout=stackLayout;horizontal=1;startSize=26;horizontalStack=0;resizeParent=1;resizeParentMax=0;resizeLast=0;collapsible=1;marginBottom=0;whiteSpace=wrap;html=1;" parent="1" vertex="1">
          <mxGeometry x="-290" y="246" width="198" height="346" as="geometry" />
        </mxCell>
        <mxCell id="SIO9TbtsdNupXH5esDP5-23" value="- title: string" style="text;strokeColor=none;fillColor=none;align=left;verticalAlign=top;spacingLeft=4;spacingRight=4;overflow=hidden;rotatable=0;points=[[0,0.5],[1,0.5]];portConstraint=eastwest;whiteSpace=wrap;html=1;" parent="SIO9TbtsdNupXH5esDP5-22" vertex="1">
          <mxGeometry y="26" width="198" height="26" as="geometry" />
        </mxCell>
        <mxCell id="SIO9TbtsdNupXH5esDP5-132" value="- category: string" style="text;strokeColor=none;fillColor=none;align=left;verticalAlign=top;spacingLeft=4;spacingRight=4;overflow=hidden;rotatable=0;points=[[0,0.5],[1,0.5]];portConstraint=eastwest;whiteSpace=wrap;html=1;" parent="SIO9TbtsdNupXH5esDP5-22" vertex="1">
          <mxGeometry y="52" width="198" height="26" as="geometry" />
        </mxCell>
        <mxCell id="SIO9TbtsdNupXH5esDP5-128" value="- description: string" style="text;strokeColor=none;fillColor=none;align=left;verticalAlign=top;spacingLeft=4;spacingRight=4;overflow=hidden;rotatable=0;points=[[0,0.5],[1,0.5]];portConstraint=eastwest;whiteSpace=wrap;html=1;" parent="SIO9TbtsdNupXH5esDP5-22" vertex="1">
          <mxGeometry y="78" width="198" height="26" as="geometry" />
        </mxCell>
        <mxCell id="SIO9TbtsdNupXH5esDP5-29" value="- rental: bool" style="text;strokeColor=none;fillColor=none;align=left;verticalAlign=top;spacingLeft=4;spacingRight=4;overflow=hidden;rotatable=0;points=[[0,0.5],[1,0.5]];portConstraint=eastwest;whiteSpace=wrap;html=1;" parent="SIO9TbtsdNupXH5esDP5-22" vertex="1">
          <mxGeometry y="104" width="198" height="26" as="geometry" />
        </mxCell>
        <mxCell id="SIO9TbtsdNupXH5esDP5-24" value="- price: float" style="text;strokeColor=none;fillColor=none;align=left;verticalAlign=top;spacingLeft=4;spacingRight=4;overflow=hidden;rotatable=0;points=[[0,0.5],[1,0.5]];portConstraint=eastwest;whiteSpace=wrap;html=1;" parent="SIO9TbtsdNupXH5esDP5-22" vertex="1">
          <mxGeometry y="130" width="198" height="26" as="geometry" />
        </mxCell>
        <mxCell id="SIO9TbtsdNupXH5esDP5-25" value="- mtq: string" style="text;strokeColor=none;fillColor=none;align=left;verticalAlign=top;spacingLeft=4;spacingRight=4;overflow=hidden;rotatable=0;points=[[0,0.5],[1,0.5]];portConstraint=eastwest;whiteSpace=wrap;html=1;" parent="SIO9TbtsdNupXH5esDP5-22" vertex="1">
          <mxGeometry y="156" width="198" height="26" as="geometry" />
        </mxCell>
        <mxCell id="SIO9TbtsdNupXH5esDP5-26" value="- energy_class: string" style="text;strokeColor=none;fillColor=none;align=left;verticalAlign=top;spacingLeft=4;spacingRight=4;overflow=hidden;rotatable=0;points=[[0,0.5],[1,0.5]];portConstraint=eastwest;whiteSpace=wrap;html=1;" parent="SIO9TbtsdNupXH5esDP5-22" vertex="1">
          <mxGeometry y="182" width="198" height="26" as="geometry" />
        </mxCell>
        <mxCell id="SIO9TbtsdNupXH5esDP5-96" value="- address: string" style="text;strokeColor=none;fillColor=none;align=left;verticalAlign=top;spacingLeft=4;spacingRight=4;overflow=hidden;rotatable=0;points=[[0,0.5],[1,0.5]];portConstraint=eastwest;whiteSpace=wrap;html=1;" parent="SIO9TbtsdNupXH5esDP5-22" vertex="1">
          <mxGeometry y="208" width="198" height="26" as="geometry" />
        </mxCell>
        <mxCell id="SIO9TbtsdNupXH5esDP5-116" value="- rooms: int" style="text;strokeColor=none;fillColor=none;align=left;verticalAlign=top;spacingLeft=4;spacingRight=4;overflow=hidden;rotatable=0;points=[[0,0.5],[1,0.5]];portConstraint=eastwest;whiteSpace=wrap;html=1;" parent="SIO9TbtsdNupXH5esDP5-22" vertex="1">
          <mxGeometry y="234" width="198" height="26" as="geometry" />
        </mxCell>
        <mxCell id="SIO9TbtsdNupXH5esDP5-115" value="- services: int" style="text;strokeColor=none;fillColor=none;align=left;verticalAlign=top;spacingLeft=4;spacingRight=4;overflow=hidden;rotatable=0;points=[[0,0.5],[1,0.5]];portConstraint=eastwest;whiteSpace=wrap;html=1;" parent="SIO9TbtsdNupXH5esDP5-22" vertex="1">
          <mxGeometry y="260" width="198" height="26" as="geometry" />
        </mxCell>
        <mxCell id="SIO9TbtsdNupXH5esDP5-27" value="" style="line;strokeWidth=1;fillColor=none;align=left;verticalAlign=middle;spacingTop=-1;spacingLeft=3;spacingRight=3;rotatable=0;labelPosition=right;points=[];portConstraint=eastwest;strokeColor=inherit;" parent="SIO9TbtsdNupXH5esDP5-22" vertex="1">
          <mxGeometry y="286" width="198" height="8" as="geometry" />
        </mxCell>
        <mxCell id="SIO9TbtsdNupXH5esDP5-28" value="+addFeature(Feature): void" style="text;strokeColor=none;fillColor=none;align=left;verticalAlign=top;spacingLeft=4;spacingRight=4;overflow=hidden;rotatable=0;points=[[0,0.5],[1,0.5]];portConstraint=eastwest;whiteSpace=wrap;html=1;" parent="SIO9TbtsdNupXH5esDP5-22" vertex="1">
          <mxGeometry y="294" width="198" height="26" as="geometry" />
        </mxCell>
        <mxCell id="SIO9TbtsdNupXH5esDP5-136" value="+addCategory(Category): void" style="text;strokeColor=none;fillColor=none;align=left;verticalAlign=top;spacingLeft=4;spacingRight=4;overflow=hidden;rotatable=0;points=[[0,0.5],[1,0.5]];portConstraint=eastwest;whiteSpace=wrap;html=1;" parent="SIO9TbtsdNupXH5esDP5-22" vertex="1">
          <mxGeometry y="320" width="198" height="26" as="geometry" />
        </mxCell>
        <mxCell id="SIO9TbtsdNupXH5esDP5-38" value="Feature" style="swimlane;fontStyle=1;align=center;verticalAlign=top;childLayout=stackLayout;horizontal=1;startSize=26;horizontalStack=0;resizeParent=1;resizeParentMax=0;resizeLast=0;collapsible=1;marginBottom=0;whiteSpace=wrap;html=1;" parent="1" vertex="1">
          <mxGeometry x="-613" y="376" width="160" height="86" as="geometry" />
        </mxCell>
        <mxCell id="SIO9TbtsdNupXH5esDP5-39" value="- description: string" style="text;strokeColor=none;fillColor=none;align=left;verticalAlign=top;spacingLeft=4;spacingRight=4;overflow=hidden;rotatable=0;points=[[0,0.5],[1,0.5]];portConstraint=eastwest;whiteSpace=wrap;html=1;" parent="SIO9TbtsdNupXH5esDP5-38" vertex="1">
          <mxGeometry y="26" width="160" height="26" as="geometry" />
        </mxCell>
        <mxCell id="SIO9TbtsdNupXH5esDP5-40" value="" style="line;strokeWidth=1;fillColor=none;align=left;verticalAlign=middle;spacingTop=-1;spacingLeft=3;spacingRight=3;rotatable=0;labelPosition=right;points=[];portConstraint=eastwest;strokeColor=inherit;" parent="SIO9TbtsdNupXH5esDP5-38" vertex="1">
          <mxGeometry y="52" width="160" height="8" as="geometry" />
        </mxCell>
        <mxCell id="SIO9TbtsdNupXH5esDP5-41" value="// getter &amp;amp; setter" style="text;strokeColor=none;fillColor=none;align=left;verticalAlign=top;spacingLeft=4;spacingRight=4;overflow=hidden;rotatable=0;points=[[0,0.5],[1,0.5]];portConstraint=eastwest;whiteSpace=wrap;html=1;" parent="SIO9TbtsdNupXH5esDP5-38" vertex="1">
          <mxGeometry y="60" width="160" height="26" as="geometry" />
        </mxCell>
        <mxCell id="SIO9TbtsdNupXH5esDP5-84" style="rounded=0;orthogonalLoop=1;jettySize=auto;html=1;endArrow=open;endFill=0;" parent="1" source="SIO9TbtsdNupXH5esDP5-61" target="SIO9TbtsdNupXH5esDP5-98" edge="1">
          <mxGeometry relative="1" as="geometry" />
        </mxCell>
        <mxCell id="SIO9TbtsdNupXH5esDP5-61" value="Role" style="swimlane;fontStyle=1;align=center;verticalAlign=top;childLayout=stackLayout;horizontal=1;startSize=26;horizontalStack=0;resizeParent=1;resizeParentMax=0;resizeLast=0;collapsible=1;marginBottom=0;whiteSpace=wrap;html=1;" parent="1" vertex="1">
          <mxGeometry x="529" y="696" width="160" height="112" as="geometry" />
        </mxCell>
        <mxCell id="SIO9TbtsdNupXH5esDP5-62" value="- name: string" style="text;strokeColor=none;fillColor=none;align=left;verticalAlign=top;spacingLeft=4;spacingRight=4;overflow=hidden;rotatable=0;points=[[0,0.5],[1,0.5]];portConstraint=eastwest;whiteSpace=wrap;html=1;" parent="SIO9TbtsdNupXH5esDP5-61" vertex="1">
          <mxGeometry y="26" width="160" height="26" as="geometry" />
        </mxCell>
        <mxCell id="SIO9TbtsdNupXH5esDP5-63" value="- description: string" style="text;strokeColor=none;fillColor=none;align=left;verticalAlign=top;spacingLeft=4;spacingRight=4;overflow=hidden;rotatable=0;points=[[0,0.5],[1,0.5]];portConstraint=eastwest;whiteSpace=wrap;html=1;" parent="SIO9TbtsdNupXH5esDP5-61" vertex="1">
          <mxGeometry y="52" width="160" height="26" as="geometry" />
        </mxCell>
        <mxCell id="SIO9TbtsdNupXH5esDP5-66" value="" style="line;strokeWidth=1;fillColor=none;align=left;verticalAlign=middle;spacingTop=-1;spacingLeft=3;spacingRight=3;rotatable=0;labelPosition=right;points=[];portConstraint=eastwest;strokeColor=inherit;" parent="SIO9TbtsdNupXH5esDP5-61" vertex="1">
          <mxGeometry y="78" width="160" height="8" as="geometry" />
        </mxCell>
        <mxCell id="SIO9TbtsdNupXH5esDP5-67" value="// getter &amp;amp; setter" style="text;strokeColor=none;fillColor=none;align=left;verticalAlign=top;spacingLeft=4;spacingRight=4;overflow=hidden;rotatable=0;points=[[0,0.5],[1,0.5]];portConstraint=eastwest;whiteSpace=wrap;html=1;" parent="SIO9TbtsdNupXH5esDP5-61" vertex="1">
          <mxGeometry y="86" width="160" height="26" as="geometry" />
        </mxCell>
        <mxCell id="SIO9TbtsdNupXH5esDP5-79" value="Resource" style="swimlane;fontStyle=1;align=center;verticalAlign=top;childLayout=stackLayout;horizontal=1;startSize=26;horizontalStack=0;resizeParent=1;resizeParentMax=0;resizeLast=0;collapsible=1;marginBottom=0;whiteSpace=wrap;html=1;" parent="1" vertex="1">
          <mxGeometry x="796" y="889" width="160" height="112" as="geometry" />
        </mxCell>
        <mxCell id="SIO9TbtsdNupXH5esDP5-80" value="- name: string" style="text;strokeColor=none;fillColor=none;align=left;verticalAlign=top;spacingLeft=4;spacingRight=4;overflow=hidden;rotatable=0;points=[[0,0.5],[1,0.5]];portConstraint=eastwest;whiteSpace=wrap;html=1;" parent="SIO9TbtsdNupXH5esDP5-79" vertex="1">
          <mxGeometry y="26" width="160" height="26" as="geometry" />
        </mxCell>
        <mxCell id="SIO9TbtsdNupXH5esDP5-81" value="- description: string" style="text;strokeColor=none;fillColor=none;align=left;verticalAlign=top;spacingLeft=4;spacingRight=4;overflow=hidden;rotatable=0;points=[[0,0.5],[1,0.5]];portConstraint=eastwest;whiteSpace=wrap;html=1;" parent="SIO9TbtsdNupXH5esDP5-79" vertex="1">
          <mxGeometry y="52" width="160" height="26" as="geometry" />
        </mxCell>
        <mxCell id="SIO9TbtsdNupXH5esDP5-82" value="" style="line;strokeWidth=1;fillColor=none;align=left;verticalAlign=middle;spacingTop=-1;spacingLeft=3;spacingRight=3;rotatable=0;labelPosition=right;points=[];portConstraint=eastwest;strokeColor=inherit;" parent="SIO9TbtsdNupXH5esDP5-79" vertex="1">
          <mxGeometry y="78" width="160" height="8" as="geometry" />
        </mxCell>
        <mxCell id="SIO9TbtsdNupXH5esDP5-83" value="// getter &amp;amp; setter" style="text;strokeColor=none;fillColor=none;align=left;verticalAlign=top;spacingLeft=4;spacingRight=4;overflow=hidden;rotatable=0;points=[[0,0.5],[1,0.5]];portConstraint=eastwest;whiteSpace=wrap;html=1;" parent="SIO9TbtsdNupXH5esDP5-79" vertex="1">
          <mxGeometry y="86" width="160" height="26" as="geometry" />
        </mxCell>
        <mxCell id="SIO9TbtsdNupXH5esDP5-92" style="edgeStyle=orthogonalEdgeStyle;rounded=0;orthogonalLoop=1;jettySize=auto;html=1;endArrow=open;endFill=0;" parent="1" source="SIO9TbtsdNupXH5esDP5-13" target="SIO9TbtsdNupXH5esDP5-22" edge="1">
          <mxGeometry relative="1" as="geometry">
            <Array as="points">
              <mxPoint x="-262" y="1048" />
            </Array>
          </mxGeometry>
        </mxCell>
        <mxCell id="SIO9TbtsdNupXH5esDP5-104" style="edgeStyle=orthogonalEdgeStyle;rounded=0;orthogonalLoop=1;jettySize=auto;html=1;startArrow=open;startFill=0;endArrow=open;endFill=0;" parent="1" source="SIO9TbtsdNupXH5esDP5-79" target="SIO9TbtsdNupXH5esDP5-98" edge="1">
          <mxGeometry relative="1" as="geometry">
            <mxPoint x="973" y="603" as="targetPoint" />
          </mxGeometry>
        </mxCell>
        <mxCell id="SIO9TbtsdNupXH5esDP5-98" value="Permission" style="swimlane;fontStyle=1;align=center;verticalAlign=top;childLayout=stackLayout;horizontal=1;startSize=26;horizontalStack=0;resizeParent=1;resizeParentMax=0;resizeLast=0;collapsible=1;marginBottom=0;whiteSpace=wrap;html=1;" parent="1" vertex="1">
          <mxGeometry x="796" y="696" width="160" height="112" as="geometry" />
        </mxCell>
        <mxCell id="SIO9TbtsdNupXH5esDP5-99" value="- action: string" style="text;strokeColor=none;fillColor=none;align=left;verticalAlign=top;spacingLeft=4;spacingRight=4;overflow=hidden;rotatable=0;points=[[0,0.5],[1,0.5]];portConstraint=eastwest;whiteSpace=wrap;html=1;" parent="SIO9TbtsdNupXH5esDP5-98" vertex="1">
          <mxGeometry y="26" width="160" height="26" as="geometry" />
        </mxCell>
        <mxCell id="SIO9TbtsdNupXH5esDP5-100" value="- description: string" style="text;strokeColor=none;fillColor=none;align=left;verticalAlign=top;spacingLeft=4;spacingRight=4;overflow=hidden;rotatable=0;points=[[0,0.5],[1,0.5]];portConstraint=eastwest;whiteSpace=wrap;html=1;" parent="SIO9TbtsdNupXH5esDP5-98" vertex="1">
          <mxGeometry y="52" width="160" height="26" as="geometry" />
        </mxCell>
        <mxCell id="SIO9TbtsdNupXH5esDP5-101" value="" style="line;strokeWidth=1;fillColor=none;align=left;verticalAlign=middle;spacingTop=-1;spacingLeft=3;spacingRight=3;rotatable=0;labelPosition=right;points=[];portConstraint=eastwest;strokeColor=inherit;" parent="SIO9TbtsdNupXH5esDP5-98" vertex="1">
          <mxGeometry y="78" width="160" height="8" as="geometry" />
        </mxCell>
        <mxCell id="SIO9TbtsdNupXH5esDP5-102" value="// getter &amp;amp; setter" style="text;strokeColor=none;fillColor=none;align=left;verticalAlign=top;spacingLeft=4;spacingRight=4;overflow=hidden;rotatable=0;points=[[0,0.5],[1,0.5]];portConstraint=eastwest;whiteSpace=wrap;html=1;" parent="SIO9TbtsdNupXH5esDP5-98" vertex="1">
          <mxGeometry y="86" width="160" height="26" as="geometry" />
        </mxCell>
        <mxCell id="SIO9TbtsdNupXH5esDP5-105" value="Location" style="swimlane;fontStyle=1;align=center;verticalAlign=top;childLayout=stackLayout;horizontal=1;startSize=26;horizontalStack=0;resizeParent=1;resizeParentMax=0;resizeLast=0;collapsible=1;marginBottom=0;whiteSpace=wrap;html=1;" parent="1" vertex="1">
          <mxGeometry x="-627" y="137" width="160" height="190" as="geometry" />
        </mxCell>
        <mxCell id="SIO9TbtsdNupXH5esDP5-107" value="- latitude: float" style="text;strokeColor=none;fillColor=none;align=left;verticalAlign=top;spacingLeft=4;spacingRight=4;overflow=hidden;rotatable=0;points=[[0,0.5],[1,0.5]];portConstraint=eastwest;whiteSpace=wrap;html=1;" parent="SIO9TbtsdNupXH5esDP5-105" vertex="1">
          <mxGeometry y="26" width="160" height="26" as="geometry" />
        </mxCell>
        <mxCell id="SIO9TbtsdNupXH5esDP5-110" value="- longitude: float" style="text;strokeColor=none;fillColor=none;align=left;verticalAlign=top;spacingLeft=4;spacingRight=4;overflow=hidden;rotatable=0;points=[[0,0.5],[1,0.5]];portConstraint=eastwest;whiteSpace=wrap;html=1;" parent="SIO9TbtsdNupXH5esDP5-105" vertex="1">
          <mxGeometry y="52" width="160" height="26" as="geometry" />
        </mxCell>
        <mxCell id="SIO9TbtsdNupXH5esDP5-111" value="- near_school: bool" style="text;strokeColor=none;fillColor=none;align=left;verticalAlign=top;spacingLeft=4;spacingRight=4;overflow=hidden;rotatable=0;points=[[0,0.5],[1,0.5]];portConstraint=eastwest;whiteSpace=wrap;html=1;" parent="SIO9TbtsdNupXH5esDP5-105" vertex="1">
          <mxGeometry y="78" width="160" height="26" as="geometry" />
        </mxCell>
        <mxCell id="SIO9TbtsdNupXH5esDP5-112" value="- near_park: bool" style="text;strokeColor=none;fillColor=none;align=left;verticalAlign=top;spacingLeft=4;spacingRight=4;overflow=hidden;rotatable=0;points=[[0,0.5],[1,0.5]];portConstraint=eastwest;whiteSpace=wrap;html=1;" parent="SIO9TbtsdNupXH5esDP5-105" vertex="1">
          <mxGeometry y="104" width="160" height="26" as="geometry" />
        </mxCell>
        <mxCell id="SIO9TbtsdNupXH5esDP5-113" value="- near_transport: bool" style="text;strokeColor=none;fillColor=none;align=left;verticalAlign=top;spacingLeft=4;spacingRight=4;overflow=hidden;rotatable=0;points=[[0,0.5],[1,0.5]];portConstraint=eastwest;whiteSpace=wrap;html=1;" parent="SIO9TbtsdNupXH5esDP5-105" vertex="1">
          <mxGeometry y="130" width="160" height="26" as="geometry" />
        </mxCell>
        <mxCell id="SIO9TbtsdNupXH5esDP5-108" value="" style="line;strokeWidth=1;fillColor=none;align=left;verticalAlign=middle;spacingTop=-1;spacingLeft=3;spacingRight=3;rotatable=0;labelPosition=right;points=[];portConstraint=eastwest;strokeColor=inherit;" parent="SIO9TbtsdNupXH5esDP5-105" vertex="1">
          <mxGeometry y="156" width="160" height="8" as="geometry" />
        </mxCell>
        <mxCell id="SIO9TbtsdNupXH5esDP5-109" value="// getter &amp;amp; setter" style="text;strokeColor=none;fillColor=none;align=left;verticalAlign=top;spacingLeft=4;spacingRight=4;overflow=hidden;rotatable=0;points=[[0,0.5],[1,0.5]];portConstraint=eastwest;whiteSpace=wrap;html=1;" parent="SIO9TbtsdNupXH5esDP5-105" vertex="1">
          <mxGeometry y="164" width="160" height="26" as="geometry" />
        </mxCell>
        <mxCell id="SIO9TbtsdNupXH5esDP5-134" style="edgeStyle=orthogonalEdgeStyle;rounded=0;orthogonalLoop=1;jettySize=auto;html=1;startArrow=open;startFill=0;endArrow=open;endFill=0;" parent="1" source="SIO9TbtsdNupXH5esDP5-119" target="SIO9TbtsdNupXH5esDP5-22" edge="1">
          <mxGeometry relative="1" as="geometry">
            <Array as="points">
              <mxPoint x="-163" y="696" />
            </Array>
          </mxGeometry>
        </mxCell>
        <mxCell id="SIO9TbtsdNupXH5esDP5-119" value="Offer" style="swimlane;fontStyle=1;align=center;verticalAlign=top;childLayout=stackLayout;horizontal=1;startSize=26;horizontalStack=0;resizeParent=1;resizeParentMax=0;resizeLast=0;collapsible=1;marginBottom=0;whiteSpace=wrap;html=1;" parent="1" vertex="1">
          <mxGeometry x="-73" y="627" width="160" height="138" as="geometry" />
        </mxCell>
        <mxCell id="SIO9TbtsdNupXH5esDP5-120" value="- price: float" style="text;strokeColor=none;fillColor=none;align=left;verticalAlign=top;spacingLeft=4;spacingRight=4;overflow=hidden;rotatable=0;points=[[0,0.5],[1,0.5]];portConstraint=eastwest;whiteSpace=wrap;html=1;" parent="SIO9TbtsdNupXH5esDP5-119" vertex="1">
          <mxGeometry y="26" width="160" height="26" as="geometry" />
        </mxCell>
        <mxCell id="SIO9TbtsdNupXH5esDP5-121" value="- status: string" style="text;strokeColor=none;fillColor=none;align=left;verticalAlign=top;spacingLeft=4;spacingRight=4;overflow=hidden;rotatable=0;points=[[0,0.5],[1,0.5]];portConstraint=eastwest;whiteSpace=wrap;html=1;" parent="SIO9TbtsdNupXH5esDP5-119" vertex="1">
          <mxGeometry y="52" width="160" height="26" as="geometry" />
        </mxCell>
        <mxCell id="SIO9TbtsdNupXH5esDP5-122" value="- created_at: string" style="text;strokeColor=none;fillColor=none;align=left;verticalAlign=top;spacingLeft=4;spacingRight=4;overflow=hidden;rotatable=0;points=[[0,0.5],[1,0.5]];portConstraint=eastwest;whiteSpace=wrap;html=1;" parent="SIO9TbtsdNupXH5esDP5-119" vertex="1">
          <mxGeometry y="78" width="160" height="26" as="geometry" />
        </mxCell>
        <mxCell id="SIO9TbtsdNupXH5esDP5-124" value="" style="line;strokeWidth=1;fillColor=none;align=left;verticalAlign=middle;spacingTop=-1;spacingLeft=3;spacingRight=3;rotatable=0;labelPosition=right;points=[];portConstraint=eastwest;strokeColor=inherit;" parent="SIO9TbtsdNupXH5esDP5-119" vertex="1">
          <mxGeometry y="104" width="160" height="8" as="geometry" />
        </mxCell>
        <mxCell id="SIO9TbtsdNupXH5esDP5-125" value="// getter &amp;amp; setter" style="text;strokeColor=none;fillColor=none;align=left;verticalAlign=top;spacingLeft=4;spacingRight=4;overflow=hidden;rotatable=0;points=[[0,0.5],[1,0.5]];portConstraint=eastwest;whiteSpace=wrap;html=1;" parent="SIO9TbtsdNupXH5esDP5-119" vertex="1">
          <mxGeometry y="112" width="160" height="26" as="geometry" />
        </mxCell>
        <mxCell id="SIO9TbtsdNupXH5esDP5-133" style="edgeStyle=orthogonalEdgeStyle;rounded=0;orthogonalLoop=1;jettySize=auto;html=1;entryX=1;entryY=0.5;entryDx=0;entryDy=0;startArrow=open;startFill=0;endArrow=open;endFill=0;" parent="1" source="SIO9TbtsdNupXH5esDP5-17" target="SIO9TbtsdNupXH5esDP5-119" edge="1">
          <mxGeometry relative="1" as="geometry" />
        </mxCell>
        <mxCell id="1U3JtkLmRqp0XS_s6lJx-1" value="&amp;lt;&amp;lt;interface&amp;gt;&amp;gt;&lt;br&gt;File" style="swimlane;fontStyle=1;align=center;verticalAlign=top;childLayout=stackLayout;horizontal=1;startSize=43;horizontalStack=0;resizeParent=1;resizeParentMax=0;resizeLast=0;collapsible=1;marginBottom=0;whiteSpace=wrap;html=1;" parent="1" vertex="1">
          <mxGeometry x="132" y="325.5" width="161" height="129" as="geometry" />
        </mxCell>
        <mxCell id="1U3JtkLmRqp0XS_s6lJx-2" value="" style="line;strokeWidth=1;fillColor=none;align=left;verticalAlign=middle;spacingTop=-1;spacingLeft=3;spacingRight=3;rotatable=0;labelPosition=right;points=[];portConstraint=eastwest;strokeColor=inherit;" parent="1U3JtkLmRqp0XS_s6lJx-1" vertex="1">
          <mxGeometry y="43" width="161" height="8" as="geometry" />
        </mxCell>
        <mxCell id="1U3JtkLmRqp0XS_s6lJx-3" value="+ upload(File): bool" style="text;strokeColor=none;fillColor=none;align=left;verticalAlign=top;spacingLeft=4;spacingRight=4;overflow=hidden;rotatable=0;points=[[0,0.5],[1,0.5]];portConstraint=eastwest;whiteSpace=wrap;html=1;" parent="1U3JtkLmRqp0XS_s6lJx-1" vertex="1">
          <mxGeometry y="51" width="161" height="26" as="geometry" />
        </mxCell>
        <mxCell id="1U3JtkLmRqp0XS_s6lJx-4" value="+ read(path): File" style="text;strokeColor=none;fillColor=none;align=left;verticalAlign=top;spacingLeft=4;spacingRight=4;overflow=hidden;rotatable=0;points=[[0,0.5],[1,0.5]];portConstraint=eastwest;whiteSpace=wrap;html=1;" parent="1U3JtkLmRqp0XS_s6lJx-1" vertex="1">
          <mxGeometry y="77" width="161" height="26" as="geometry" />
        </mxCell>
        <mxCell id="1U3JtkLmRqp0XS_s6lJx-5" value="+ delete(File): bool" style="text;strokeColor=none;fillColor=none;align=left;verticalAlign=top;spacingLeft=4;spacingRight=4;overflow=hidden;rotatable=0;points=[[0,0.5],[1,0.5]];portConstraint=eastwest;whiteSpace=wrap;html=1;" parent="1U3JtkLmRqp0XS_s6lJx-1" vertex="1">
          <mxGeometry y="103" width="161" height="26" as="geometry" />
        </mxCell>
        <mxCell id="1U3JtkLmRqp0XS_s6lJx-6" style="rounded=0;orthogonalLoop=1;jettySize=auto;html=1;dashed=1;endArrow=block;endFill=0;" parent="1" source="1U3JtkLmRqp0XS_s6lJx-7" target="1U3JtkLmRqp0XS_s6lJx-1" edge="1">
          <mxGeometry relative="1" as="geometry" />
        </mxCell>
        <mxCell id="1U3JtkLmRqp0XS_s6lJx-7" value="Image" style="swimlane;fontStyle=1;align=center;verticalAlign=top;childLayout=stackLayout;horizontal=1;startSize=26;horizontalStack=0;resizeParent=1;resizeParentMax=0;resizeLast=0;collapsible=1;marginBottom=0;whiteSpace=wrap;html=1;" parent="1" vertex="1">
          <mxGeometry x="132" y="-20" width="161" height="242" as="geometry" />
        </mxCell>
        <mxCell id="1U3JtkLmRqp0XS_s6lJx-8" value="- path: string" style="text;strokeColor=none;fillColor=none;align=left;verticalAlign=top;spacingLeft=4;spacingRight=4;overflow=hidden;rotatable=0;points=[[0,0.5],[1,0.5]];portConstraint=eastwest;whiteSpace=wrap;html=1;" parent="1U3JtkLmRqp0XS_s6lJx-7" vertex="1">
          <mxGeometry y="26" width="161" height="26" as="geometry" />
        </mxCell>
        <mxCell id="1U3JtkLmRqp0XS_s6lJx-9" value="- name: string" style="text;strokeColor=none;fillColor=none;align=left;verticalAlign=top;spacingLeft=4;spacingRight=4;overflow=hidden;rotatable=0;points=[[0,0.5],[1,0.5]];portConstraint=eastwest;whiteSpace=wrap;html=1;" parent="1U3JtkLmRqp0XS_s6lJx-7" vertex="1">
          <mxGeometry y="52" width="161" height="26" as="geometry" />
        </mxCell>
        <mxCell id="1U3JtkLmRqp0XS_s6lJx-10" value="- updated_at: date" style="text;strokeColor=none;fillColor=none;align=left;verticalAlign=top;spacingLeft=4;spacingRight=4;overflow=hidden;rotatable=0;points=[[0,0.5],[1,0.5]];portConstraint=eastwest;whiteSpace=wrap;html=1;" parent="1U3JtkLmRqp0XS_s6lJx-7" vertex="1">
          <mxGeometry y="78" width="161" height="26" as="geometry" />
        </mxCell>
        <mxCell id="1U3JtkLmRqp0XS_s6lJx-11" value="- created_at: date" style="text;strokeColor=none;fillColor=none;align=left;verticalAlign=top;spacingLeft=4;spacingRight=4;overflow=hidden;rotatable=0;points=[[0,0.5],[1,0.5]];portConstraint=eastwest;whiteSpace=wrap;html=1;" parent="1U3JtkLmRqp0XS_s6lJx-7" vertex="1">
          <mxGeometry y="104" width="161" height="26" as="geometry" />
        </mxCell>
        <mxCell id="1U3JtkLmRqp0XS_s6lJx-12" value="- dimension: string" style="text;strokeColor=none;fillColor=none;align=left;verticalAlign=top;spacingLeft=4;spacingRight=4;overflow=hidden;rotatable=0;points=[[0,0.5],[1,0.5]];portConstraint=eastwest;whiteSpace=wrap;html=1;" parent="1U3JtkLmRqp0XS_s6lJx-7" vertex="1">
          <mxGeometry y="130" width="161" height="26" as="geometry" />
        </mxCell>
        <mxCell id="1U3JtkLmRqp0XS_s6lJx-13" value="" style="line;strokeWidth=1;fillColor=none;align=left;verticalAlign=middle;spacingTop=-1;spacingLeft=3;spacingRight=3;rotatable=0;labelPosition=right;points=[];portConstraint=eastwest;strokeColor=inherit;" parent="1U3JtkLmRqp0XS_s6lJx-7" vertex="1">
          <mxGeometry y="156" width="161" height="8" as="geometry" />
        </mxCell>
        <mxCell id="1U3JtkLmRqp0XS_s6lJx-14" value="+ delete(File): bool" style="text;strokeColor=none;fillColor=none;align=left;verticalAlign=top;spacingLeft=4;spacingRight=4;overflow=hidden;rotatable=0;points=[[0,0.5],[1,0.5]];portConstraint=eastwest;whiteSpace=wrap;html=1;" parent="1U3JtkLmRqp0XS_s6lJx-7" vertex="1">
          <mxGeometry y="164" width="161" height="26" as="geometry" />
        </mxCell>
        <mxCell id="1U3JtkLmRqp0XS_s6lJx-15" value="+ read(path): File" style="text;strokeColor=none;fillColor=none;align=left;verticalAlign=top;spacingLeft=4;spacingRight=4;overflow=hidden;rotatable=0;points=[[0,0.5],[1,0.5]];portConstraint=eastwest;whiteSpace=wrap;html=1;" parent="1U3JtkLmRqp0XS_s6lJx-7" vertex="1">
          <mxGeometry y="190" width="161" height="26" as="geometry" />
        </mxCell>
        <mxCell id="1U3JtkLmRqp0XS_s6lJx-16" value="+ upload(File): bool" style="text;strokeColor=none;fillColor=none;align=left;verticalAlign=top;spacingLeft=4;spacingRight=4;overflow=hidden;rotatable=0;points=[[0,0.5],[1,0.5]];portConstraint=eastwest;whiteSpace=wrap;html=1;" parent="1U3JtkLmRqp0XS_s6lJx-7" vertex="1">
          <mxGeometry y="216" width="161" height="26" as="geometry" />
        </mxCell>
        <mxCell id="1U3JtkLmRqp0XS_s6lJx-17" style="edgeStyle=orthogonalEdgeStyle;rounded=0;orthogonalLoop=1;jettySize=auto;html=1;exitX=1;exitY=0.5;exitDx=0;exitDy=0;entryX=0;entryY=0.5;entryDx=0;entryDy=0;endArrow=open;endFill=0;" parent="1" source="SIO9TbtsdNupXH5esDP5-25" target="1U3JtkLmRqp0XS_s6lJx-4" edge="1">
          <mxGeometry relative="1" as="geometry" />
        </mxCell>
      </root>
    </mxGraphModel>
  </diagram>
  <diagram id="fWgqD9WvOBsbYkLubCLG" name="v.1.1">
    <mxGraphModel dx="3806" dy="486" grid="0" gridSize="10" guides="1" tooltips="1" connect="1" arrows="1" fold="1" page="0" pageScale="1" pageWidth="827" pageHeight="1169" math="0" shadow="0">
      <root>
        <mxCell id="0" />
        <mxCell id="1" parent="0" />
        <mxCell id="0hCow40CLnN-v_HWkPOa-1" style="edgeStyle=orthogonalEdgeStyle;rounded=0;orthogonalLoop=1;jettySize=auto;html=1;endArrow=open;endFill=0;exitX=0;exitY=0.5;exitDx=0;exitDy=0;entryX=1;entryY=0.5;entryDx=0;entryDy=0;" parent="1" source="jK_zs07VYHg8GWVqM6Rd-96" target="0hCow40CLnN-v_HWkPOa-63" edge="1">
          <mxGeometry relative="1" as="geometry">
            <mxPoint x="-394.5" y="1128" as="sourcePoint" />
          </mxGeometry>
        </mxCell>
        <mxCell id="0hCow40CLnN-v_HWkPOa-27" style="rounded=0;orthogonalLoop=1;jettySize=auto;html=1;endArrow=open;endFill=0;exitX=0;exitY=0.5;exitDx=0;exitDy=0;startArrow=diamondThin;startFill=0;startSize=15;" parent="1" source="0hCow40CLnN-v_HWkPOa-33" target="0hCow40CLnN-v_HWkPOa-44" edge="1">
          <mxGeometry relative="1" as="geometry" />
        </mxCell>
        <mxCell id="0hCow40CLnN-v_HWkPOa-28" style="rounded=0;orthogonalLoop=1;jettySize=auto;html=1;endArrow=open;endFill=0;startArrow=open;startFill=0;exitX=0;exitY=0.5;exitDx=0;exitDy=0;" parent="1" source="dWv2_lMP7xTUzhw1pze7-14" target="0hCow40CLnN-v_HWkPOa-80" edge="1">
          <mxGeometry relative="1" as="geometry">
            <mxPoint x="-448" y="2410" as="sourcePoint" />
          </mxGeometry>
        </mxCell>
        <mxCell id="dWv2_lMP7xTUzhw1pze7-47" style="edgeStyle=orthogonalEdgeStyle;rounded=0;orthogonalLoop=1;jettySize=auto;html=1;entryX=0;entryY=0.5;entryDx=0;entryDy=0;endArrow=open;endFill=0;startArrow=open;startFill=0;" parent="1" source="0hCow40CLnN-v_HWkPOa-29" target="jK_zs07VYHg8GWVqM6Rd-123" edge="1">
          <mxGeometry relative="1" as="geometry">
            <Array as="points">
              <mxPoint x="-329" y="1690" />
            </Array>
          </mxGeometry>
        </mxCell>
        <mxCell id="0hCow40CLnN-v_HWkPOa-29" value="Estate" style="swimlane;fontStyle=1;align=center;verticalAlign=top;childLayout=stackLayout;horizontal=1;startSize=26;horizontalStack=0;resizeParent=1;resizeParentMax=0;resizeLast=0;collapsible=1;marginBottom=0;whiteSpace=wrap;html=1;" parent="1" vertex="1">
          <mxGeometry x="-448" y="2033" width="199" height="372" as="geometry" />
        </mxCell>
        <mxCell id="dWv2_lMP7xTUzhw1pze7-14" value="- id: long" style="text;strokeColor=none;fillColor=none;align=left;verticalAlign=top;spacingLeft=4;spacingRight=4;overflow=hidden;rotatable=0;points=[[0,0.5],[1,0.5]];portConstraint=eastwest;whiteSpace=wrap;html=1;" parent="0hCow40CLnN-v_HWkPOa-29" vertex="1">
          <mxGeometry y="26" width="199" height="26" as="geometry" />
        </mxCell>
        <mxCell id="0hCow40CLnN-v_HWkPOa-30" value="- title: string" style="text;strokeColor=none;fillColor=none;align=left;verticalAlign=top;spacingLeft=4;spacingRight=4;overflow=hidden;rotatable=0;points=[[0,0.5],[1,0.5]];portConstraint=eastwest;whiteSpace=wrap;html=1;" parent="0hCow40CLnN-v_HWkPOa-29" vertex="1">
          <mxGeometry y="52" width="199" height="26" as="geometry" />
        </mxCell>
        <mxCell id="0hCow40CLnN-v_HWkPOa-31" value="- category: string" style="text;strokeColor=none;fillColor=none;align=left;verticalAlign=top;spacingLeft=4;spacingRight=4;overflow=hidden;rotatable=0;points=[[0,0.5],[1,0.5]];portConstraint=eastwest;whiteSpace=wrap;html=1;" parent="0hCow40CLnN-v_HWkPOa-29" vertex="1">
          <mxGeometry y="78" width="199" height="26" as="geometry" />
        </mxCell>
        <mxCell id="0hCow40CLnN-v_HWkPOa-32" value="- description: string" style="text;strokeColor=none;fillColor=none;align=left;verticalAlign=top;spacingLeft=4;spacingRight=4;overflow=hidden;rotatable=0;points=[[0,0.5],[1,0.5]];portConstraint=eastwest;whiteSpace=wrap;html=1;" parent="0hCow40CLnN-v_HWkPOa-29" vertex="1">
          <mxGeometry y="104" width="199" height="26" as="geometry" />
        </mxCell>
        <mxCell id="0hCow40CLnN-v_HWkPOa-33" value="- rental: bool" style="text;strokeColor=none;fillColor=none;align=left;verticalAlign=top;spacingLeft=4;spacingRight=4;overflow=hidden;rotatable=0;points=[[0,0.5],[1,0.5]];portConstraint=eastwest;whiteSpace=wrap;html=1;" parent="0hCow40CLnN-v_HWkPOa-29" vertex="1">
          <mxGeometry y="130" width="199" height="26" as="geometry" />
        </mxCell>
        <mxCell id="0hCow40CLnN-v_HWkPOa-34" value="- price: float" style="text;strokeColor=none;fillColor=none;align=left;verticalAlign=top;spacingLeft=4;spacingRight=4;overflow=hidden;rotatable=0;points=[[0,0.5],[1,0.5]];portConstraint=eastwest;whiteSpace=wrap;html=1;" parent="0hCow40CLnN-v_HWkPOa-29" vertex="1">
          <mxGeometry y="156" width="199" height="26" as="geometry" />
        </mxCell>
        <mxCell id="0hCow40CLnN-v_HWkPOa-35" value="- mtq: string" style="text;strokeColor=none;fillColor=none;align=left;verticalAlign=top;spacingLeft=4;spacingRight=4;overflow=hidden;rotatable=0;points=[[0,0.5],[1,0.5]];portConstraint=eastwest;whiteSpace=wrap;html=1;" parent="0hCow40CLnN-v_HWkPOa-29" vertex="1">
          <mxGeometry y="182" width="199" height="26" as="geometry" />
        </mxCell>
        <mxCell id="0hCow40CLnN-v_HWkPOa-36" value="- energy_class: string" style="text;strokeColor=none;fillColor=none;align=left;verticalAlign=top;spacingLeft=4;spacingRight=4;overflow=hidden;rotatable=0;points=[[0,0.5],[1,0.5]];portConstraint=eastwest;whiteSpace=wrap;html=1;" parent="0hCow40CLnN-v_HWkPOa-29" vertex="1">
          <mxGeometry y="208" width="199" height="26" as="geometry" />
        </mxCell>
        <mxCell id="0hCow40CLnN-v_HWkPOa-38" value="- rooms: int" style="text;strokeColor=none;fillColor=none;align=left;verticalAlign=top;spacingLeft=4;spacingRight=4;overflow=hidden;rotatable=0;points=[[0,0.5],[1,0.5]];portConstraint=eastwest;whiteSpace=wrap;html=1;" parent="0hCow40CLnN-v_HWkPOa-29" vertex="1">
          <mxGeometry y="234" width="199" height="26" as="geometry" />
        </mxCell>
        <mxCell id="0hCow40CLnN-v_HWkPOa-39" value="- services: int" style="text;strokeColor=none;fillColor=none;align=left;verticalAlign=top;spacingLeft=4;spacingRight=4;overflow=hidden;rotatable=0;points=[[0,0.5],[1,0.5]];portConstraint=eastwest;whiteSpace=wrap;html=1;" parent="0hCow40CLnN-v_HWkPOa-29" vertex="1">
          <mxGeometry y="260" width="199" height="26" as="geometry" />
        </mxCell>
        <mxCell id="0hCow40CLnN-v_HWkPOa-40" value="- elevator: bool" style="text;strokeColor=none;fillColor=none;align=left;verticalAlign=top;spacingLeft=4;spacingRight=4;overflow=hidden;rotatable=0;points=[[0,0.5],[1,0.5]];portConstraint=eastwest;whiteSpace=wrap;html=1;" parent="0hCow40CLnN-v_HWkPOa-29" vertex="1">
          <mxGeometry y="286" width="199" height="26" as="geometry" />
        </mxCell>
        <mxCell id="dWv2_lMP7xTUzhw1pze7-50" value="- sell: bool" style="text;strokeColor=none;fillColor=none;align=left;verticalAlign=top;spacingLeft=4;spacingRight=4;overflow=hidden;rotatable=0;points=[[0,0.5],[1,0.5]];portConstraint=eastwest;whiteSpace=wrap;html=1;" parent="0hCow40CLnN-v_HWkPOa-29" vertex="1">
          <mxGeometry y="312" width="199" height="26" as="geometry" />
        </mxCell>
        <mxCell id="0hCow40CLnN-v_HWkPOa-41" value="" style="line;strokeWidth=1;fillColor=none;align=left;verticalAlign=middle;spacingTop=-1;spacingLeft=3;spacingRight=3;rotatable=0;labelPosition=right;points=[];portConstraint=eastwest;strokeColor=inherit;" parent="0hCow40CLnN-v_HWkPOa-29" vertex="1">
          <mxGeometry y="338" width="199" height="8" as="geometry" />
        </mxCell>
        <mxCell id="0hCow40CLnN-v_HWkPOa-42" value="+addFeature(Feature): void" style="text;strokeColor=none;fillColor=none;align=left;verticalAlign=top;spacingLeft=4;spacingRight=4;overflow=hidden;rotatable=0;points=[[0,0.5],[1,0.5]];portConstraint=eastwest;whiteSpace=wrap;html=1;" parent="0hCow40CLnN-v_HWkPOa-29" vertex="1">
          <mxGeometry y="346" width="199" height="26" as="geometry" />
        </mxCell>
        <mxCell id="0hCow40CLnN-v_HWkPOa-44" value="Feature" style="swimlane;fontStyle=1;align=center;verticalAlign=top;childLayout=stackLayout;horizontal=1;startSize=26;horizontalStack=0;resizeParent=1;resizeParentMax=0;resizeLast=0;collapsible=1;marginBottom=0;whiteSpace=wrap;html=1;" parent="1" vertex="1">
          <mxGeometry x="-762" y="2120" width="161" height="112" as="geometry" />
        </mxCell>
        <mxCell id="dWv2_lMP7xTUzhw1pze7-15" value="- id: long" style="text;strokeColor=none;fillColor=none;align=left;verticalAlign=top;spacingLeft=4;spacingRight=4;overflow=hidden;rotatable=0;points=[[0,0.5],[1,0.5]];portConstraint=eastwest;whiteSpace=wrap;html=1;" parent="0hCow40CLnN-v_HWkPOa-44" vertex="1">
          <mxGeometry y="26" width="161" height="26" as="geometry" />
        </mxCell>
        <mxCell id="0hCow40CLnN-v_HWkPOa-45" value="- description: string" style="text;strokeColor=none;fillColor=none;align=left;verticalAlign=top;spacingLeft=4;spacingRight=4;overflow=hidden;rotatable=0;points=[[0,0.5],[1,0.5]];portConstraint=eastwest;whiteSpace=wrap;html=1;" parent="0hCow40CLnN-v_HWkPOa-44" vertex="1">
          <mxGeometry y="52" width="161" height="26" as="geometry" />
        </mxCell>
        <mxCell id="0hCow40CLnN-v_HWkPOa-46" value="" style="line;strokeWidth=1;fillColor=none;align=left;verticalAlign=middle;spacingTop=-1;spacingLeft=3;spacingRight=3;rotatable=0;labelPosition=right;points=[];portConstraint=eastwest;strokeColor=inherit;" parent="0hCow40CLnN-v_HWkPOa-44" vertex="1">
          <mxGeometry y="78" width="161" height="8" as="geometry" />
        </mxCell>
        <mxCell id="0hCow40CLnN-v_HWkPOa-47" value="// getter &amp;amp; setter" style="text;strokeColor=none;fillColor=none;align=left;verticalAlign=top;spacingLeft=4;spacingRight=4;overflow=hidden;rotatable=0;points=[[0,0.5],[1,0.5]];portConstraint=eastwest;whiteSpace=wrap;html=1;" parent="0hCow40CLnN-v_HWkPOa-44" vertex="1">
          <mxGeometry y="86" width="161" height="26" as="geometry" />
        </mxCell>
        <mxCell id="0hCow40CLnN-v_HWkPOa-48" value="&amp;lt;&amp;lt;interface&amp;gt;&amp;gt;&lt;br&gt;File" style="swimlane;fontStyle=1;align=center;verticalAlign=top;childLayout=stackLayout;horizontal=1;startSize=43;horizontalStack=0;resizeParent=1;resizeParentMax=0;resizeLast=0;collapsible=1;marginBottom=0;whiteSpace=wrap;html=1;" parent="1" vertex="1">
          <mxGeometry x="-1328" y="1654.5" width="161" height="129" as="geometry" />
        </mxCell>
        <mxCell id="0hCow40CLnN-v_HWkPOa-54" value="" style="line;strokeWidth=1;fillColor=none;align=left;verticalAlign=middle;spacingTop=-1;spacingLeft=3;spacingRight=3;rotatable=0;labelPosition=right;points=[];portConstraint=eastwest;strokeColor=inherit;" parent="0hCow40CLnN-v_HWkPOa-48" vertex="1">
          <mxGeometry y="43" width="161" height="8" as="geometry" />
        </mxCell>
        <mxCell id="0hCow40CLnN-v_HWkPOa-55" value="+ upload(File): bool" style="text;strokeColor=none;fillColor=none;align=left;verticalAlign=top;spacingLeft=4;spacingRight=4;overflow=hidden;rotatable=0;points=[[0,0.5],[1,0.5]];portConstraint=eastwest;whiteSpace=wrap;html=1;" parent="0hCow40CLnN-v_HWkPOa-48" vertex="1">
          <mxGeometry y="51" width="161" height="26" as="geometry" />
        </mxCell>
        <mxCell id="0hCow40CLnN-v_HWkPOa-56" value="+ read(path): File" style="text;strokeColor=none;fillColor=none;align=left;verticalAlign=top;spacingLeft=4;spacingRight=4;overflow=hidden;rotatable=0;points=[[0,0.5],[1,0.5]];portConstraint=eastwest;whiteSpace=wrap;html=1;" parent="0hCow40CLnN-v_HWkPOa-48" vertex="1">
          <mxGeometry y="77" width="161" height="26" as="geometry" />
        </mxCell>
        <mxCell id="0hCow40CLnN-v_HWkPOa-57" value="+ delete(File): bool" style="text;strokeColor=none;fillColor=none;align=left;verticalAlign=top;spacingLeft=4;spacingRight=4;overflow=hidden;rotatable=0;points=[[0,0.5],[1,0.5]];portConstraint=eastwest;whiteSpace=wrap;html=1;" parent="0hCow40CLnN-v_HWkPOa-48" vertex="1">
          <mxGeometry y="103" width="161" height="26" as="geometry" />
        </mxCell>
        <mxCell id="0hCow40CLnN-v_HWkPOa-58" style="rounded=0;orthogonalLoop=1;jettySize=auto;html=1;dashed=1;endArrow=block;endFill=0;" parent="1" source="0hCow40CLnN-v_HWkPOa-59" target="0hCow40CLnN-v_HWkPOa-48" edge="1">
          <mxGeometry relative="1" as="geometry" />
        </mxCell>
        <mxCell id="0hCow40CLnN-v_HWkPOa-62" value="Role" style="swimlane;fontStyle=1;align=center;verticalAlign=top;childLayout=stackLayout;horizontal=1;startSize=26;horizontalStack=0;resizeParent=1;resizeParentMax=0;resizeLast=0;collapsible=1;marginBottom=0;whiteSpace=wrap;html=1;" parent="1" vertex="1">
          <mxGeometry x="-774" y="1478" width="160" height="138" as="geometry" />
        </mxCell>
        <mxCell id="0hCow40CLnN-v_HWkPOa-63" value="- id: long" style="text;strokeColor=none;fillColor=none;align=left;verticalAlign=top;spacingLeft=4;spacingRight=4;overflow=hidden;rotatable=0;points=[[0,0.5],[1,0.5]];portConstraint=eastwest;whiteSpace=wrap;html=1;" parent="0hCow40CLnN-v_HWkPOa-62" vertex="1">
          <mxGeometry y="26" width="160" height="26" as="geometry" />
        </mxCell>
        <mxCell id="dWv2_lMP7xTUzhw1pze7-9" value="- name: string" style="text;strokeColor=none;fillColor=none;align=left;verticalAlign=top;spacingLeft=4;spacingRight=4;overflow=hidden;rotatable=0;points=[[0,0.5],[1,0.5]];portConstraint=eastwest;whiteSpace=wrap;html=1;" parent="0hCow40CLnN-v_HWkPOa-62" vertex="1">
          <mxGeometry y="52" width="160" height="26" as="geometry" />
        </mxCell>
        <mxCell id="0hCow40CLnN-v_HWkPOa-64" value="- description: string" style="text;strokeColor=none;fillColor=none;align=left;verticalAlign=top;spacingLeft=4;spacingRight=4;overflow=hidden;rotatable=0;points=[[0,0.5],[1,0.5]];portConstraint=eastwest;whiteSpace=wrap;html=1;" parent="0hCow40CLnN-v_HWkPOa-62" vertex="1">
          <mxGeometry y="78" width="160" height="26" as="geometry" />
        </mxCell>
        <mxCell id="0hCow40CLnN-v_HWkPOa-65" value="" style="line;strokeWidth=1;fillColor=none;align=left;verticalAlign=middle;spacingTop=-1;spacingLeft=3;spacingRight=3;rotatable=0;labelPosition=right;points=[];portConstraint=eastwest;strokeColor=inherit;" parent="0hCow40CLnN-v_HWkPOa-62" vertex="1">
          <mxGeometry y="104" width="160" height="8" as="geometry" />
        </mxCell>
        <mxCell id="0hCow40CLnN-v_HWkPOa-66" value="// getter &amp;amp; setter" style="text;strokeColor=none;fillColor=none;align=left;verticalAlign=top;spacingLeft=4;spacingRight=4;overflow=hidden;rotatable=0;points=[[0,0.5],[1,0.5]];portConstraint=eastwest;whiteSpace=wrap;html=1;" parent="0hCow40CLnN-v_HWkPOa-62" vertex="1">
          <mxGeometry y="112" width="160" height="26" as="geometry" />
        </mxCell>
        <mxCell id="0hCow40CLnN-v_HWkPOa-75" value="Permission" style="swimlane;fontStyle=1;align=center;verticalAlign=top;childLayout=stackLayout;horizontal=1;startSize=26;horizontalStack=0;resizeParent=1;resizeParentMax=0;resizeLast=0;collapsible=1;marginBottom=0;whiteSpace=wrap;html=1;" parent="1" vertex="1">
          <mxGeometry x="-774" y="1707" width="160" height="138" as="geometry" />
        </mxCell>
        <mxCell id="dWv2_lMP7xTUzhw1pze7-12" value="- id: long" style="text;strokeColor=none;fillColor=none;align=left;verticalAlign=top;spacingLeft=4;spacingRight=4;overflow=hidden;rotatable=0;points=[[0,0.5],[1,0.5]];portConstraint=eastwest;whiteSpace=wrap;html=1;" parent="0hCow40CLnN-v_HWkPOa-75" vertex="1">
          <mxGeometry y="26" width="160" height="26" as="geometry" />
        </mxCell>
        <mxCell id="0hCow40CLnN-v_HWkPOa-76" value="- action: string" style="text;strokeColor=none;fillColor=none;align=left;verticalAlign=top;spacingLeft=4;spacingRight=4;overflow=hidden;rotatable=0;points=[[0,0.5],[1,0.5]];portConstraint=eastwest;whiteSpace=wrap;html=1;" parent="0hCow40CLnN-v_HWkPOa-75" vertex="1">
          <mxGeometry y="52" width="160" height="26" as="geometry" />
        </mxCell>
        <mxCell id="0hCow40CLnN-v_HWkPOa-77" value="- description: string" style="text;strokeColor=none;fillColor=none;align=left;verticalAlign=top;spacingLeft=4;spacingRight=4;overflow=hidden;rotatable=0;points=[[0,0.5],[1,0.5]];portConstraint=eastwest;whiteSpace=wrap;html=1;" parent="0hCow40CLnN-v_HWkPOa-75" vertex="1">
          <mxGeometry y="78" width="160" height="26" as="geometry" />
        </mxCell>
        <mxCell id="0hCow40CLnN-v_HWkPOa-78" value="" style="line;strokeWidth=1;fillColor=none;align=left;verticalAlign=middle;spacingTop=-1;spacingLeft=3;spacingRight=3;rotatable=0;labelPosition=right;points=[];portConstraint=eastwest;strokeColor=inherit;" parent="0hCow40CLnN-v_HWkPOa-75" vertex="1">
          <mxGeometry y="104" width="160" height="8" as="geometry" />
        </mxCell>
        <mxCell id="0hCow40CLnN-v_HWkPOa-79" value="// getter &amp;amp; setter" style="text;strokeColor=none;fillColor=none;align=left;verticalAlign=top;spacingLeft=4;spacingRight=4;overflow=hidden;rotatable=0;points=[[0,0.5],[1,0.5]];portConstraint=eastwest;whiteSpace=wrap;html=1;" parent="0hCow40CLnN-v_HWkPOa-75" vertex="1">
          <mxGeometry y="112" width="160" height="26" as="geometry" />
        </mxCell>
        <mxCell id="0hCow40CLnN-v_HWkPOa-80" value="Location" style="swimlane;fontStyle=1;align=center;verticalAlign=top;childLayout=stackLayout;horizontal=1;startSize=26;horizontalStack=0;resizeParent=1;resizeParentMax=0;resizeLast=0;collapsible=1;marginBottom=0;whiteSpace=wrap;html=1;" parent="1" vertex="1">
          <mxGeometry x="-935" y="1964" width="161" height="216" as="geometry" />
        </mxCell>
        <mxCell id="dWv2_lMP7xTUzhw1pze7-16" value="- id: long" style="text;strokeColor=none;fillColor=none;align=left;verticalAlign=top;spacingLeft=4;spacingRight=4;overflow=hidden;rotatable=0;points=[[0,0.5],[1,0.5]];portConstraint=eastwest;whiteSpace=wrap;html=1;" parent="0hCow40CLnN-v_HWkPOa-80" vertex="1">
          <mxGeometry y="26" width="161" height="26" as="geometry" />
        </mxCell>
        <mxCell id="0hCow40CLnN-v_HWkPOa-81" value="- latitude: float" style="text;strokeColor=none;fillColor=none;align=left;verticalAlign=top;spacingLeft=4;spacingRight=4;overflow=hidden;rotatable=0;points=[[0,0.5],[1,0.5]];portConstraint=eastwest;whiteSpace=wrap;html=1;" parent="0hCow40CLnN-v_HWkPOa-80" vertex="1">
          <mxGeometry y="52" width="161" height="26" as="geometry" />
        </mxCell>
        <mxCell id="0hCow40CLnN-v_HWkPOa-82" value="- longitude: float" style="text;strokeColor=none;fillColor=none;align=left;verticalAlign=top;spacingLeft=4;spacingRight=4;overflow=hidden;rotatable=0;points=[[0,0.5],[1,0.5]];portConstraint=eastwest;whiteSpace=wrap;html=1;" parent="0hCow40CLnN-v_HWkPOa-80" vertex="1">
          <mxGeometry y="78" width="161" height="26" as="geometry" />
        </mxCell>
        <mxCell id="0hCow40CLnN-v_HWkPOa-83" value="- near_school: bool" style="text;strokeColor=none;fillColor=none;align=left;verticalAlign=top;spacingLeft=4;spacingRight=4;overflow=hidden;rotatable=0;points=[[0,0.5],[1,0.5]];portConstraint=eastwest;whiteSpace=wrap;html=1;" parent="0hCow40CLnN-v_HWkPOa-80" vertex="1">
          <mxGeometry y="104" width="161" height="26" as="geometry" />
        </mxCell>
        <mxCell id="0hCow40CLnN-v_HWkPOa-84" value="- near_park: bool" style="text;strokeColor=none;fillColor=none;align=left;verticalAlign=top;spacingLeft=4;spacingRight=4;overflow=hidden;rotatable=0;points=[[0,0.5],[1,0.5]];portConstraint=eastwest;whiteSpace=wrap;html=1;" parent="0hCow40CLnN-v_HWkPOa-80" vertex="1">
          <mxGeometry y="130" width="161" height="26" as="geometry" />
        </mxCell>
        <mxCell id="0hCow40CLnN-v_HWkPOa-85" value="- near_transport: bool" style="text;strokeColor=none;fillColor=none;align=left;verticalAlign=top;spacingLeft=4;spacingRight=4;overflow=hidden;rotatable=0;points=[[0,0.5],[1,0.5]];portConstraint=eastwest;whiteSpace=wrap;html=1;" parent="0hCow40CLnN-v_HWkPOa-80" vertex="1">
          <mxGeometry y="156" width="161" height="26" as="geometry" />
        </mxCell>
        <mxCell id="0hCow40CLnN-v_HWkPOa-86" value="" style="line;strokeWidth=1;fillColor=none;align=left;verticalAlign=middle;spacingTop=-1;spacingLeft=3;spacingRight=3;rotatable=0;labelPosition=right;points=[];portConstraint=eastwest;strokeColor=inherit;" parent="0hCow40CLnN-v_HWkPOa-80" vertex="1">
          <mxGeometry y="182" width="161" height="8" as="geometry" />
        </mxCell>
        <mxCell id="0hCow40CLnN-v_HWkPOa-87" value="// getter &amp;amp; setter" style="text;strokeColor=none;fillColor=none;align=left;verticalAlign=top;spacingLeft=4;spacingRight=4;overflow=hidden;rotatable=0;points=[[0,0.5],[1,0.5]];portConstraint=eastwest;whiteSpace=wrap;html=1;" parent="0hCow40CLnN-v_HWkPOa-80" vertex="1">
          <mxGeometry y="190" width="161" height="26" as="geometry" />
        </mxCell>
        <mxCell id="dWv2_lMP7xTUzhw1pze7-46" style="edgeStyle=orthogonalEdgeStyle;rounded=0;orthogonalLoop=1;jettySize=auto;html=1;entryX=1;entryY=0.5;entryDx=0;entryDy=0;endArrow=open;endFill=0;startArrow=open;startFill=0;" parent="1" source="0hCow40CLnN-v_HWkPOa-89" target="0hCow40CLnN-v_HWkPOa-32" edge="1">
          <mxGeometry relative="1" as="geometry" />
        </mxCell>
        <mxCell id="0hCow40CLnN-v_HWkPOa-89" value="Offer" style="swimlane;fontStyle=1;align=center;verticalAlign=top;childLayout=stackLayout;horizontal=1;startSize=26;horizontalStack=0;resizeParent=1;resizeParentMax=0;resizeLast=0;collapsible=1;marginBottom=0;whiteSpace=wrap;html=1;" parent="1" vertex="1">
          <mxGeometry x="198" y="2068" width="160" height="164" as="geometry" />
        </mxCell>
        <mxCell id="0hCow40CLnN-v_HWkPOa-90" value="- id: long" style="text;strokeColor=none;fillColor=none;align=left;verticalAlign=top;spacingLeft=4;spacingRight=4;overflow=hidden;rotatable=0;points=[[0,0.5],[1,0.5]];portConstraint=eastwest;whiteSpace=wrap;html=1;" parent="0hCow40CLnN-v_HWkPOa-89" vertex="1">
          <mxGeometry y="26" width="160" height="26" as="geometry" />
        </mxCell>
        <mxCell id="dWv2_lMP7xTUzhw1pze7-8" value="- price: float" style="text;strokeColor=none;fillColor=none;align=left;verticalAlign=top;spacingLeft=4;spacingRight=4;overflow=hidden;rotatable=0;points=[[0,0.5],[1,0.5]];portConstraint=eastwest;whiteSpace=wrap;html=1;" parent="0hCow40CLnN-v_HWkPOa-89" vertex="1">
          <mxGeometry y="52" width="160" height="26" as="geometry" />
        </mxCell>
        <mxCell id="0hCow40CLnN-v_HWkPOa-91" value="- status: string" style="text;strokeColor=none;fillColor=none;align=left;verticalAlign=top;spacingLeft=4;spacingRight=4;overflow=hidden;rotatable=0;points=[[0,0.5],[1,0.5]];portConstraint=eastwest;whiteSpace=wrap;html=1;" parent="0hCow40CLnN-v_HWkPOa-89" vertex="1">
          <mxGeometry y="78" width="160" height="26" as="geometry" />
        </mxCell>
        <mxCell id="0hCow40CLnN-v_HWkPOa-92" value="- created_at: string" style="text;strokeColor=none;fillColor=none;align=left;verticalAlign=top;spacingLeft=4;spacingRight=4;overflow=hidden;rotatable=0;points=[[0,0.5],[1,0.5]];portConstraint=eastwest;whiteSpace=wrap;html=1;" parent="0hCow40CLnN-v_HWkPOa-89" vertex="1">
          <mxGeometry y="104" width="160" height="26" as="geometry" />
        </mxCell>
        <mxCell id="0hCow40CLnN-v_HWkPOa-93" value="" style="line;strokeWidth=1;fillColor=none;align=left;verticalAlign=middle;spacingTop=-1;spacingLeft=3;spacingRight=3;rotatable=0;labelPosition=right;points=[];portConstraint=eastwest;strokeColor=inherit;" parent="0hCow40CLnN-v_HWkPOa-89" vertex="1">
          <mxGeometry y="130" width="160" height="8" as="geometry" />
        </mxCell>
        <mxCell id="0hCow40CLnN-v_HWkPOa-94" value="// getter &amp;amp; setter" style="text;strokeColor=none;fillColor=none;align=left;verticalAlign=top;spacingLeft=4;spacingRight=4;overflow=hidden;rotatable=0;points=[[0,0.5],[1,0.5]];portConstraint=eastwest;whiteSpace=wrap;html=1;" parent="0hCow40CLnN-v_HWkPOa-89" vertex="1">
          <mxGeometry y="138" width="160" height="26" as="geometry" />
        </mxCell>
        <mxCell id="0hCow40CLnN-v_HWkPOa-59" value="Image" style="swimlane;fontStyle=1;align=center;verticalAlign=top;childLayout=stackLayout;horizontal=1;startSize=26;horizontalStack=0;resizeParent=1;resizeParentMax=0;resizeLast=0;collapsible=1;marginBottom=0;whiteSpace=wrap;html=1;" parent="1" vertex="1">
          <mxGeometry x="-1598" y="1585" width="161" height="268" as="geometry" />
        </mxCell>
        <mxCell id="jK_zs07VYHg8GWVqM6Rd-151" value="- id : long" style="text;strokeColor=none;fillColor=none;align=left;verticalAlign=top;spacingLeft=4;spacingRight=4;overflow=hidden;rotatable=0;points=[[0,0.5],[1,0.5]];portConstraint=eastwest;whiteSpace=wrap;html=1;" parent="0hCow40CLnN-v_HWkPOa-59" vertex="1">
          <mxGeometry y="26" width="161" height="26" as="geometry" />
        </mxCell>
        <mxCell id="dWv2_lMP7xTUzhw1pze7-13" value="- path: string" style="text;strokeColor=none;fillColor=none;align=left;verticalAlign=top;spacingLeft=4;spacingRight=4;overflow=hidden;rotatable=0;points=[[0,0.5],[1,0.5]];portConstraint=eastwest;whiteSpace=wrap;html=1;" parent="0hCow40CLnN-v_HWkPOa-59" vertex="1">
          <mxGeometry y="52" width="161" height="26" as="geometry" />
        </mxCell>
        <mxCell id="jK_zs07VYHg8GWVqM6Rd-152" value="- name: string" style="text;strokeColor=none;fillColor=none;align=left;verticalAlign=top;spacingLeft=4;spacingRight=4;overflow=hidden;rotatable=0;points=[[0,0.5],[1,0.5]];portConstraint=eastwest;whiteSpace=wrap;html=1;" parent="0hCow40CLnN-v_HWkPOa-59" vertex="1">
          <mxGeometry y="78" width="161" height="26" as="geometry" />
        </mxCell>
        <mxCell id="jK_zs07VYHg8GWVqM6Rd-155" value="- updated_at: date" style="text;strokeColor=none;fillColor=none;align=left;verticalAlign=top;spacingLeft=4;spacingRight=4;overflow=hidden;rotatable=0;points=[[0,0.5],[1,0.5]];portConstraint=eastwest;whiteSpace=wrap;html=1;" parent="0hCow40CLnN-v_HWkPOa-59" vertex="1">
          <mxGeometry y="104" width="161" height="26" as="geometry" />
        </mxCell>
        <mxCell id="jK_zs07VYHg8GWVqM6Rd-154" value="- created_at: date" style="text;strokeColor=none;fillColor=none;align=left;verticalAlign=top;spacingLeft=4;spacingRight=4;overflow=hidden;rotatable=0;points=[[0,0.5],[1,0.5]];portConstraint=eastwest;whiteSpace=wrap;html=1;" parent="0hCow40CLnN-v_HWkPOa-59" vertex="1">
          <mxGeometry y="130" width="161" height="26" as="geometry" />
        </mxCell>
        <mxCell id="jK_zs07VYHg8GWVqM6Rd-153" value="- dimension: string" style="text;strokeColor=none;fillColor=none;align=left;verticalAlign=top;spacingLeft=4;spacingRight=4;overflow=hidden;rotatable=0;points=[[0,0.5],[1,0.5]];portConstraint=eastwest;whiteSpace=wrap;html=1;" parent="0hCow40CLnN-v_HWkPOa-59" vertex="1">
          <mxGeometry y="156" width="161" height="26" as="geometry" />
        </mxCell>
        <mxCell id="0hCow40CLnN-v_HWkPOa-60" value="" style="line;strokeWidth=1;fillColor=none;align=left;verticalAlign=middle;spacingTop=-1;spacingLeft=3;spacingRight=3;rotatable=0;labelPosition=right;points=[];portConstraint=eastwest;strokeColor=inherit;" parent="0hCow40CLnN-v_HWkPOa-59" vertex="1">
          <mxGeometry y="182" width="161" height="8" as="geometry" />
        </mxCell>
        <mxCell id="jK_zs07VYHg8GWVqM6Rd-168" value="+ delete(File): bool" style="text;strokeColor=none;fillColor=none;align=left;verticalAlign=top;spacingLeft=4;spacingRight=4;overflow=hidden;rotatable=0;points=[[0,0.5],[1,0.5]];portConstraint=eastwest;whiteSpace=wrap;html=1;" parent="0hCow40CLnN-v_HWkPOa-59" vertex="1">
          <mxGeometry y="190" width="161" height="26" as="geometry" />
        </mxCell>
        <mxCell id="jK_zs07VYHg8GWVqM6Rd-167" value="+ read(path): File" style="text;strokeColor=none;fillColor=none;align=left;verticalAlign=top;spacingLeft=4;spacingRight=4;overflow=hidden;rotatable=0;points=[[0,0.5],[1,0.5]];portConstraint=eastwest;whiteSpace=wrap;html=1;" parent="0hCow40CLnN-v_HWkPOa-59" vertex="1">
          <mxGeometry y="216" width="161" height="26" as="geometry" />
        </mxCell>
        <mxCell id="jK_zs07VYHg8GWVqM6Rd-166" value="+ upload(File): bool" style="text;strokeColor=none;fillColor=none;align=left;verticalAlign=top;spacingLeft=4;spacingRight=4;overflow=hidden;rotatable=0;points=[[0,0.5],[1,0.5]];portConstraint=eastwest;whiteSpace=wrap;html=1;" parent="0hCow40CLnN-v_HWkPOa-59" vertex="1">
          <mxGeometry y="242" width="161" height="26" as="geometry" />
        </mxCell>
        <mxCell id="jK_zs07VYHg8GWVqM6Rd-35" style="edgeStyle=orthogonalEdgeStyle;rounded=0;orthogonalLoop=1;jettySize=auto;html=1;endArrow=open;endFill=0;" parent="1" source="0hCow40CLnN-v_HWkPOa-62" target="0hCow40CLnN-v_HWkPOa-75" edge="1">
          <mxGeometry relative="1" as="geometry" />
        </mxCell>
        <mxCell id="jK_zs07VYHg8GWVqM6Rd-74" value="&amp;lt;&amp;lt;interface&amp;gt;&amp;gt;&lt;br&gt;User" style="swimlane;fontStyle=1;align=center;verticalAlign=top;childLayout=stackLayout;horizontal=1;startSize=37;horizontalStack=0;resizeParent=1;resizeParentMax=0;resizeLast=0;collapsible=1;marginBottom=0;whiteSpace=wrap;html=1;" parent="1" vertex="1">
          <mxGeometry x="-292" y="1070" width="160" height="123" as="geometry" />
        </mxCell>
        <mxCell id="jK_zs07VYHg8GWVqM6Rd-82" value="" style="line;strokeWidth=1;fillColor=none;align=left;verticalAlign=middle;spacingTop=-1;spacingLeft=3;spacingRight=3;rotatable=0;labelPosition=right;points=[];portConstraint=eastwest;strokeColor=inherit;" parent="jK_zs07VYHg8GWVqM6Rd-74" vertex="1">
          <mxGeometry y="37" width="160" height="8" as="geometry" />
        </mxCell>
        <mxCell id="jK_zs07VYHg8GWVqM6Rd-83" value="// getter &amp;amp; setter" style="text;strokeColor=none;fillColor=none;align=left;verticalAlign=top;spacingLeft=4;spacingRight=4;overflow=hidden;rotatable=0;points=[[0,0.5],[1,0.5]];portConstraint=eastwest;whiteSpace=wrap;html=1;" parent="jK_zs07VYHg8GWVqM6Rd-74" vertex="1">
          <mxGeometry y="45" width="160" height="26" as="geometry" />
        </mxCell>
        <mxCell id="jK_zs07VYHg8GWVqM6Rd-84" value="+ login(email, password)" style="text;strokeColor=none;fillColor=none;align=left;verticalAlign=top;spacingLeft=4;spacingRight=4;overflow=hidden;rotatable=0;points=[[0,0.5],[1,0.5]];portConstraint=eastwest;whiteSpace=wrap;html=1;" parent="jK_zs07VYHg8GWVqM6Rd-74" vertex="1">
          <mxGeometry y="71" width="160" height="26" as="geometry" />
        </mxCell>
        <mxCell id="jK_zs07VYHg8GWVqM6Rd-85" value="+ logout()" style="text;strokeColor=none;fillColor=none;align=left;verticalAlign=top;spacingLeft=4;spacingRight=4;overflow=hidden;rotatable=0;points=[[0,0.5],[1,0.5]];portConstraint=eastwest;whiteSpace=wrap;html=1;" parent="jK_zs07VYHg8GWVqM6Rd-74" vertex="1">
          <mxGeometry y="97" width="160" height="26" as="geometry" />
        </mxCell>
        <mxCell id="jK_zs07VYHg8GWVqM6Rd-100" style="edgeStyle=orthogonalEdgeStyle;rounded=0;orthogonalLoop=1;jettySize=auto;html=1;endArrow=block;endFill=0;dashed=1;" parent="1" source="jK_zs07VYHg8GWVqM6Rd-87" target="jK_zs07VYHg8GWVqM6Rd-74" edge="1">
          <mxGeometry relative="1" as="geometry" />
        </mxCell>
        <mxCell id="jK_zs07VYHg8GWVqM6Rd-87" value="SimpleUser" style="swimlane;fontStyle=1;align=center;verticalAlign=top;childLayout=stackLayout;horizontal=1;startSize=26;horizontalStack=0;resizeParent=1;resizeParentMax=0;resizeLast=0;collapsible=1;marginBottom=0;whiteSpace=wrap;html=1;" parent="1" vertex="1">
          <mxGeometry x="-481" y="1288" width="189" height="294" as="geometry" />
        </mxCell>
        <mxCell id="jK_zs07VYHg8GWVqM6Rd-88" value="- id: string" style="text;strokeColor=none;fillColor=none;align=left;verticalAlign=top;spacingLeft=4;spacingRight=4;overflow=hidden;rotatable=0;points=[[0,0.5],[1,0.5]];portConstraint=eastwest;whiteSpace=wrap;html=1;" parent="jK_zs07VYHg8GWVqM6Rd-87" vertex="1">
          <mxGeometry y="26" width="189" height="26" as="geometry" />
        </mxCell>
        <mxCell id="jK_zs07VYHg8GWVqM6Rd-149" value="- name: string" style="text;strokeColor=none;fillColor=none;align=left;verticalAlign=top;spacingLeft=4;spacingRight=4;overflow=hidden;rotatable=0;points=[[0,0.5],[1,0.5]];portConstraint=eastwest;whiteSpace=wrap;html=1;" parent="jK_zs07VYHg8GWVqM6Rd-87" vertex="1">
          <mxGeometry y="52" width="189" height="26" as="geometry" />
        </mxCell>
        <mxCell id="jK_zs07VYHg8GWVqM6Rd-89" value="- surname: string" style="text;strokeColor=none;fillColor=none;align=left;verticalAlign=top;spacingLeft=4;spacingRight=4;overflow=hidden;rotatable=0;points=[[0,0.5],[1,0.5]];portConstraint=eastwest;whiteSpace=wrap;html=1;" parent="jK_zs07VYHg8GWVqM6Rd-87" vertex="1">
          <mxGeometry y="78" width="189" height="26" as="geometry" />
        </mxCell>
        <mxCell id="jK_zs07VYHg8GWVqM6Rd-90" value="- email: string" style="text;strokeColor=none;fillColor=none;align=left;verticalAlign=top;spacingLeft=4;spacingRight=4;overflow=hidden;rotatable=0;points=[[0,0.5],[1,0.5]];portConstraint=eastwest;whiteSpace=wrap;html=1;" parent="jK_zs07VYHg8GWVqM6Rd-87" vertex="1">
          <mxGeometry y="104" width="189" height="26" as="geometry" />
        </mxCell>
        <mxCell id="jK_zs07VYHg8GWVqM6Rd-91" value="- password: string" style="text;strokeColor=none;fillColor=none;align=left;verticalAlign=top;spacingLeft=4;spacingRight=4;overflow=hidden;rotatable=0;points=[[0,0.5],[1,0.5]];portConstraint=eastwest;whiteSpace=wrap;html=1;" parent="jK_zs07VYHg8GWVqM6Rd-87" vertex="1">
          <mxGeometry y="130" width="189" height="26" as="geometry" />
        </mxCell>
        <mxCell id="jK_zs07VYHg8GWVqM6Rd-93" value="- created_at: Date" style="text;strokeColor=none;fillColor=none;align=left;verticalAlign=top;spacingLeft=4;spacingRight=4;overflow=hidden;rotatable=0;points=[[0,0.5],[1,0.5]];portConstraint=eastwest;whiteSpace=wrap;html=1;" parent="jK_zs07VYHg8GWVqM6Rd-87" vertex="1">
          <mxGeometry y="156" width="189" height="26" as="geometry" />
        </mxCell>
        <mxCell id="jK_zs07VYHg8GWVqM6Rd-94" value="- update_at: Date" style="text;strokeColor=none;fillColor=none;align=left;verticalAlign=top;spacingLeft=4;spacingRight=4;overflow=hidden;rotatable=0;points=[[0,0.5],[1,0.5]];portConstraint=eastwest;whiteSpace=wrap;html=1;" parent="jK_zs07VYHg8GWVqM6Rd-87" vertex="1">
          <mxGeometry y="182" width="189" height="26" as="geometry" />
        </mxCell>
        <mxCell id="jK_zs07VYHg8GWVqM6Rd-95" value="" style="line;strokeWidth=1;fillColor=none;align=left;verticalAlign=middle;spacingTop=-1;spacingLeft=3;spacingRight=3;rotatable=0;labelPosition=right;points=[];portConstraint=eastwest;strokeColor=inherit;" parent="jK_zs07VYHg8GWVqM6Rd-87" vertex="1">
          <mxGeometry y="208" width="189" height="8" as="geometry" />
        </mxCell>
        <mxCell id="jK_zs07VYHg8GWVqM6Rd-96" value="// getter &amp;amp; setter" style="text;strokeColor=none;fillColor=none;align=left;verticalAlign=top;spacingLeft=4;spacingRight=4;overflow=hidden;rotatable=0;points=[[0,0.5],[1,0.5]];portConstraint=eastwest;whiteSpace=wrap;html=1;" parent="jK_zs07VYHg8GWVqM6Rd-87" vertex="1">
          <mxGeometry y="216" width="189" height="26" as="geometry" />
        </mxCell>
        <mxCell id="jK_zs07VYHg8GWVqM6Rd-97" value="+ login(email, password)" style="text;strokeColor=none;fillColor=none;align=left;verticalAlign=top;spacingLeft=4;spacingRight=4;overflow=hidden;rotatable=0;points=[[0,0.5],[1,0.5]];portConstraint=eastwest;whiteSpace=wrap;html=1;" parent="jK_zs07VYHg8GWVqM6Rd-87" vertex="1">
          <mxGeometry y="242" width="189" height="26" as="geometry" />
        </mxCell>
        <mxCell id="jK_zs07VYHg8GWVqM6Rd-98" value="+ logout()" style="text;strokeColor=none;fillColor=none;align=left;verticalAlign=top;spacingLeft=4;spacingRight=4;overflow=hidden;rotatable=0;points=[[0,0.5],[1,0.5]];portConstraint=eastwest;whiteSpace=wrap;html=1;" parent="jK_zs07VYHg8GWVqM6Rd-87" vertex="1">
          <mxGeometry y="268" width="189" height="26" as="geometry" />
        </mxCell>
        <mxCell id="jK_zs07VYHg8GWVqM6Rd-130" style="edgeStyle=orthogonalEdgeStyle;rounded=0;orthogonalLoop=1;jettySize=auto;html=1;dashed=1;endArrow=block;endFill=0;" parent="1" source="jK_zs07VYHg8GWVqM6Rd-101" target="jK_zs07VYHg8GWVqM6Rd-74" edge="1">
          <mxGeometry relative="1" as="geometry" />
        </mxCell>
        <mxCell id="jK_zs07VYHg8GWVqM6Rd-101" value="UserDecorator" style="swimlane;fontStyle=1;align=center;verticalAlign=top;childLayout=stackLayout;horizontal=1;startSize=26;horizontalStack=0;resizeParent=1;resizeParentMax=0;resizeLast=0;collapsible=1;marginBottom=0;whiteSpace=wrap;html=1;" parent="1" vertex="1">
          <mxGeometry x="-138" y="1288" width="160" height="138" as="geometry" />
        </mxCell>
        <mxCell id="jK_zs07VYHg8GWVqM6Rd-102" value="- wrappee: User" style="text;strokeColor=none;fillColor=none;align=left;verticalAlign=top;spacingLeft=4;spacingRight=4;overflow=hidden;rotatable=0;points=[[0,0.5],[1,0.5]];portConstraint=eastwest;whiteSpace=wrap;html=1;" parent="jK_zs07VYHg8GWVqM6Rd-101" vertex="1">
          <mxGeometry y="26" width="160" height="26" as="geometry" />
        </mxCell>
        <mxCell id="jK_zs07VYHg8GWVqM6Rd-108" value="" style="line;strokeWidth=1;fillColor=none;align=left;verticalAlign=middle;spacingTop=-1;spacingLeft=3;spacingRight=3;rotatable=0;labelPosition=right;points=[];portConstraint=eastwest;strokeColor=inherit;" parent="jK_zs07VYHg8GWVqM6Rd-101" vertex="1">
          <mxGeometry y="52" width="160" height="8" as="geometry" />
        </mxCell>
        <mxCell id="jK_zs07VYHg8GWVqM6Rd-109" value="// getter &amp;amp; setter" style="text;strokeColor=none;fillColor=none;align=left;verticalAlign=top;spacingLeft=4;spacingRight=4;overflow=hidden;rotatable=0;points=[[0,0.5],[1,0.5]];portConstraint=eastwest;whiteSpace=wrap;html=1;" parent="jK_zs07VYHg8GWVqM6Rd-101" vertex="1">
          <mxGeometry y="60" width="160" height="26" as="geometry" />
        </mxCell>
        <mxCell id="jK_zs07VYHg8GWVqM6Rd-110" value="+ login(email, password)" style="text;strokeColor=none;fillColor=none;align=left;verticalAlign=top;spacingLeft=4;spacingRight=4;overflow=hidden;rotatable=0;points=[[0,0.5],[1,0.5]];portConstraint=eastwest;whiteSpace=wrap;html=1;" parent="jK_zs07VYHg8GWVqM6Rd-101" vertex="1">
          <mxGeometry y="86" width="160" height="26" as="geometry" />
        </mxCell>
        <mxCell id="jK_zs07VYHg8GWVqM6Rd-111" value="+ logout()" style="text;strokeColor=none;fillColor=none;align=left;verticalAlign=top;spacingLeft=4;spacingRight=4;overflow=hidden;rotatable=0;points=[[0,0.5],[1,0.5]];portConstraint=eastwest;whiteSpace=wrap;html=1;" parent="jK_zs07VYHg8GWVqM6Rd-101" vertex="1">
          <mxGeometry y="112" width="160" height="26" as="geometry" />
        </mxCell>
        <mxCell id="jK_zs07VYHg8GWVqM6Rd-129" style="edgeStyle=orthogonalEdgeStyle;rounded=0;orthogonalLoop=1;jettySize=auto;html=1;endArrow=block;endFill=0;exitX=0.5;exitY=0;exitDx=0;exitDy=0;" parent="1" source="jK_zs07VYHg8GWVqM6Rd-112" target="jK_zs07VYHg8GWVqM6Rd-101" edge="1">
          <mxGeometry relative="1" as="geometry">
            <Array as="points">
              <mxPoint x="-58" y="1581" />
            </Array>
          </mxGeometry>
        </mxCell>
        <mxCell id="jK_zs07VYHg8GWVqM6Rd-112" value="EmpoloyeeDecorator" style="swimlane;fontStyle=1;align=center;verticalAlign=top;childLayout=stackLayout;horizontal=1;startSize=33;horizontalStack=0;resizeParent=1;resizeParentMax=0;resizeLast=0;collapsible=1;marginBottom=0;whiteSpace=wrap;html=1;" parent="1" vertex="1">
          <mxGeometry x="-169.25" y="1579" width="222.5" height="150" as="geometry" />
        </mxCell>
        <mxCell id="jK_zs07VYHg8GWVqM6Rd-120" value="" style="line;strokeWidth=1;fillColor=none;align=left;verticalAlign=middle;spacingTop=-1;spacingLeft=3;spacingRight=3;rotatable=0;labelPosition=right;points=[];portConstraint=eastwest;strokeColor=inherit;" parent="jK_zs07VYHg8GWVqM6Rd-112" vertex="1">
          <mxGeometry y="33" width="222.5" height="13" as="geometry" />
        </mxCell>
        <mxCell id="jK_zs07VYHg8GWVqM6Rd-126" value="+ addEstate(Estate): void" style="text;strokeColor=none;fillColor=none;align=left;verticalAlign=top;spacingLeft=4;spacingRight=4;overflow=hidden;rotatable=0;points=[[0,0.5],[1,0.5]];portConstraint=eastwest;whiteSpace=wrap;html=1;" parent="jK_zs07VYHg8GWVqM6Rd-112" vertex="1">
          <mxGeometry y="46" width="222.5" height="26" as="geometry" />
        </mxCell>
        <mxCell id="jK_zs07VYHg8GWVqM6Rd-127" value="+ updateEstate(Estate): void" style="text;strokeColor=none;fillColor=none;align=left;verticalAlign=top;spacingLeft=4;spacingRight=4;overflow=hidden;rotatable=0;points=[[0,0.5],[1,0.5]];portConstraint=eastwest;whiteSpace=wrap;html=1;" parent="jK_zs07VYHg8GWVqM6Rd-112" vertex="1">
          <mxGeometry y="72" width="222.5" height="26" as="geometry" />
        </mxCell>
        <mxCell id="jK_zs07VYHg8GWVqM6Rd-123" value="+ removeEstate(Estate): void" style="text;strokeColor=none;fillColor=none;align=left;verticalAlign=top;spacingLeft=4;spacingRight=4;overflow=hidden;rotatable=0;points=[[0,0.5],[1,0.5]];portConstraint=eastwest;whiteSpace=wrap;html=1;" parent="jK_zs07VYHg8GWVqM6Rd-112" vertex="1">
          <mxGeometry y="98" width="222.5" height="26" as="geometry" />
        </mxCell>
        <mxCell id="jK_zs07VYHg8GWVqM6Rd-124" value="+ manageOffer(): void" style="text;strokeColor=none;fillColor=none;align=left;verticalAlign=top;spacingLeft=4;spacingRight=4;overflow=hidden;rotatable=0;points=[[0,0.5],[1,0.5]];portConstraint=eastwest;whiteSpace=wrap;html=1;" parent="jK_zs07VYHg8GWVqM6Rd-112" vertex="1">
          <mxGeometry y="124" width="222.5" height="26" as="geometry" />
        </mxCell>
        <mxCell id="jK_zs07VYHg8GWVqM6Rd-131" style="edgeStyle=orthogonalEdgeStyle;rounded=0;orthogonalLoop=1;jettySize=auto;html=1;exitX=1;exitY=0.5;exitDx=0;exitDy=0;entryX=1;entryY=0.5;entryDx=0;entryDy=0;endArrow=open;endFill=0;startArrow=diamondThin;startFill=0;startSize=15;" parent="1" source="jK_zs07VYHg8GWVqM6Rd-102" target="jK_zs07VYHg8GWVqM6Rd-84" edge="1">
          <mxGeometry relative="1" as="geometry" />
        </mxCell>
        <mxCell id="jK_zs07VYHg8GWVqM6Rd-177" style="edgeStyle=orthogonalEdgeStyle;rounded=0;orthogonalLoop=1;jettySize=auto;html=1;endArrow=block;endFill=0;exitX=0.5;exitY=0;exitDx=0;exitDy=0;" parent="1" source="jK_zs07VYHg8GWVqM6Rd-169" target="jK_zs07VYHg8GWVqM6Rd-112" edge="1">
          <mxGeometry relative="1" as="geometry" />
        </mxCell>
        <mxCell id="jK_zs07VYHg8GWVqM6Rd-169" value="AdminDecorator" style="swimlane;fontStyle=1;align=center;verticalAlign=top;childLayout=stackLayout;horizontal=1;startSize=33;horizontalStack=0;resizeParent=1;resizeParentMax=0;resizeLast=0;collapsible=1;marginBottom=0;whiteSpace=wrap;html=1;" parent="1" vertex="1">
          <mxGeometry x="-194.5" y="1803" width="273" height="124" as="geometry" />
        </mxCell>
        <mxCell id="jK_zs07VYHg8GWVqM6Rd-170" value="" style="line;strokeWidth=1;fillColor=none;align=left;verticalAlign=middle;spacingTop=-1;spacingLeft=3;spacingRight=3;rotatable=0;labelPosition=right;points=[];portConstraint=eastwest;strokeColor=inherit;" parent="jK_zs07VYHg8GWVqM6Rd-169" vertex="1">
          <mxGeometry y="33" width="273" height="13" as="geometry" />
        </mxCell>
        <mxCell id="jK_zs07VYHg8GWVqM6Rd-175" value="+ addEmployee(EmployeeDecorator): void" style="text;strokeColor=none;fillColor=none;align=left;verticalAlign=top;spacingLeft=4;spacingRight=4;overflow=hidden;rotatable=0;points=[[0,0.5],[1,0.5]];portConstraint=eastwest;whiteSpace=wrap;html=1;" parent="jK_zs07VYHg8GWVqM6Rd-169" vertex="1">
          <mxGeometry y="46" width="273" height="26" as="geometry" />
        </mxCell>
        <mxCell id="jK_zs07VYHg8GWVqM6Rd-179" value="+ updateEmployee(EmployeeDecorator): void" style="text;strokeColor=none;fillColor=none;align=left;verticalAlign=top;spacingLeft=4;spacingRight=4;overflow=hidden;rotatable=0;points=[[0,0.5],[1,0.5]];portConstraint=eastwest;whiteSpace=wrap;html=1;" parent="jK_zs07VYHg8GWVqM6Rd-169" vertex="1">
          <mxGeometry y="72" width="273" height="26" as="geometry" />
        </mxCell>
        <mxCell id="jK_zs07VYHg8GWVqM6Rd-176" value="+ removeEmployee(EmployeeDecorator): void" style="text;strokeColor=none;fillColor=none;align=left;verticalAlign=top;spacingLeft=4;spacingRight=4;overflow=hidden;rotatable=0;points=[[0,0.5],[1,0.5]];portConstraint=eastwest;whiteSpace=wrap;html=1;" parent="jK_zs07VYHg8GWVqM6Rd-169" vertex="1">
          <mxGeometry y="98" width="273" height="26" as="geometry" />
        </mxCell>
        <mxCell id="dWv2_lMP7xTUzhw1pze7-33" style="edgeStyle=orthogonalEdgeStyle;rounded=0;orthogonalLoop=1;jettySize=auto;html=1;endArrow=block;endFill=0;exitX=0.5;exitY=0;exitDx=0;exitDy=0;" parent="1" source="dWv2_lMP7xTUzhw1pze7-27" target="jK_zs07VYHg8GWVqM6Rd-101" edge="1">
          <mxGeometry relative="1" as="geometry">
            <Array as="points">
              <mxPoint x="281" y="1582" />
              <mxPoint x="281" y="1503" />
              <mxPoint x="-58" y="1503" />
            </Array>
          </mxGeometry>
        </mxCell>
        <mxCell id="dWv2_lMP7xTUzhw1pze7-27" value="CustomerDecorator" style="swimlane;fontStyle=1;align=center;verticalAlign=top;childLayout=stackLayout;horizontal=1;startSize=33;horizontalStack=0;resizeParent=1;resizeParentMax=0;resizeLast=0;collapsible=1;marginBottom=0;whiteSpace=wrap;html=1;" parent="1" vertex="1">
          <mxGeometry x="142" y="1582" width="273" height="124" as="geometry" />
        </mxCell>
        <mxCell id="dWv2_lMP7xTUzhw1pze7-28" value="" style="line;strokeWidth=1;fillColor=none;align=left;verticalAlign=middle;spacingTop=-1;spacingLeft=3;spacingRight=3;rotatable=0;labelPosition=right;points=[];portConstraint=eastwest;strokeColor=inherit;" parent="dWv2_lMP7xTUzhw1pze7-27" vertex="1">
          <mxGeometry y="33" width="273" height="13" as="geometry" />
        </mxCell>
        <mxCell id="dWv2_lMP7xTUzhw1pze7-53" value="+ makeOffer(Offer): void" style="text;strokeColor=none;fillColor=none;align=left;verticalAlign=top;spacingLeft=4;spacingRight=4;overflow=hidden;rotatable=0;points=[[0,0.5],[1,0.5]];portConstraint=eastwest;whiteSpace=wrap;html=1;" parent="dWv2_lMP7xTUzhw1pze7-27" vertex="1">
          <mxGeometry y="46" width="273" height="26" as="geometry" />
        </mxCell>
        <mxCell id="dWv2_lMP7xTUzhw1pze7-52" value="+ showOffers(): List&amp;lt;Offer&amp;gt;" style="text;strokeColor=none;fillColor=none;align=left;verticalAlign=top;spacingLeft=4;spacingRight=4;overflow=hidden;rotatable=0;points=[[0,0.5],[1,0.5]];portConstraint=eastwest;whiteSpace=wrap;html=1;" parent="dWv2_lMP7xTUzhw1pze7-27" vertex="1">
          <mxGeometry y="72" width="273" height="26" as="geometry" />
        </mxCell>
        <mxCell id="QA_umJXQqzfMSXxDdVw3-2" value="+ showFavoriteEstates(): List&amp;lt;Estaste&amp;gt;" style="text;strokeColor=none;fillColor=none;align=left;verticalAlign=top;spacingLeft=4;spacingRight=4;overflow=hidden;rotatable=0;points=[[0,0.5],[1,0.5]];portConstraint=eastwest;whiteSpace=wrap;html=1;" vertex="1" parent="dWv2_lMP7xTUzhw1pze7-27">
          <mxGeometry y="98" width="273" height="26" as="geometry" />
        </mxCell>
        <mxCell id="dWv2_lMP7xTUzhw1pze7-48" style="rounded=0;orthogonalLoop=1;jettySize=auto;html=1;entryX=0.5;entryY=0;entryDx=0;entryDy=0;startArrow=open;startFill=0;endArrow=open;endFill=0;edgeStyle=orthogonalEdgeStyle;" parent="1" source="dWv2_lMP7xTUzhw1pze7-27" target="0hCow40CLnN-v_HWkPOa-89" edge="1">
          <mxGeometry relative="1" as="geometry" />
        </mxCell>
        <mxCell id="dWv2_lMP7xTUzhw1pze7-49" style="edgeStyle=orthogonalEdgeStyle;rounded=0;orthogonalLoop=1;jettySize=auto;html=1;exitX=0;exitY=0.5;exitDx=0;exitDy=0;entryX=1;entryY=0.5;entryDx=0;entryDy=0;endArrow=open;endFill=0;" parent="1" source="0hCow40CLnN-v_HWkPOa-40" target="0hCow40CLnN-v_HWkPOa-56" edge="1">
          <mxGeometry relative="1" as="geometry">
            <Array as="points">
              <mxPoint x="-1130" y="2332" />
              <mxPoint x="-1130" y="1745" />
              <mxPoint x="-1167" y="1745" />
            </Array>
          </mxGeometry>
        </mxCell>
        <mxCell id="QA_umJXQqzfMSXxDdVw3-1" style="edgeStyle=orthogonalEdgeStyle;rounded=0;orthogonalLoop=1;jettySize=auto;html=1;endArrow=open;endFill=0;" edge="1" parent="1" source="dWv2_lMP7xTUzhw1pze7-27">
          <mxGeometry relative="1" as="geometry">
            <mxPoint x="-249" y="2098" as="targetPoint" />
            <Array as="points">
              <mxPoint x="166" y="2098" />
            </Array>
          </mxGeometry>
        </mxCell>
        <mxCell id="QA_umJXQqzfMSXxDdVw3-3" style="edgeStyle=orthogonalEdgeStyle;rounded=0;orthogonalLoop=1;jettySize=auto;html=1;entryX=1;entryY=0.25;entryDx=0;entryDy=0;endArrow=open;endFill=0;" edge="1" parent="1" source="jK_zs07VYHg8GWVqM6Rd-90" target="0hCow40CLnN-v_HWkPOa-48">
          <mxGeometry relative="1" as="geometry" />
        </mxCell>
      </root>
    </mxGraphModel>
  </diagram>
  <diagram id="p8bf3zZl44J86GwvgZww" name="GestioneUtenti">
    <mxGraphModel dx="2227" dy="-401" grid="1" gridSize="10" guides="1" tooltips="1" connect="1" arrows="1" fold="1" page="1" pageScale="1" pageWidth="827" pageHeight="1169" math="0" shadow="0">
      <root>
        <mxCell id="0" />
        <mxCell id="1" parent="0" />
        <mxCell id="XYmiTkq82v3VMGHFtQN4-1" style="edgeStyle=orthogonalEdgeStyle;rounded=0;orthogonalLoop=1;jettySize=auto;html=1;endArrow=open;endFill=0;exitX=0;exitY=0.5;exitDx=0;exitDy=0;entryX=1;entryY=0.5;entryDx=0;entryDy=0;" parent="1" source="XYmiTkq82v3VMGHFtQN4-30" target="XYmiTkq82v3VMGHFtQN4-3" edge="1">
          <mxGeometry relative="1" as="geometry">
            <mxPoint x="-80.5" y="1380" as="sourcePoint" />
          </mxGeometry>
        </mxCell>
        <mxCell id="XYmiTkq82v3VMGHFtQN4-2" value="Role" style="swimlane;fontStyle=1;align=center;verticalAlign=top;childLayout=stackLayout;horizontal=1;startSize=26;horizontalStack=0;resizeParent=1;resizeParentMax=0;resizeLast=0;collapsible=1;marginBottom=0;whiteSpace=wrap;html=1;" parent="1" vertex="1">
          <mxGeometry x="-460" y="1730" width="160" height="138" as="geometry" />
        </mxCell>
        <mxCell id="XYmiTkq82v3VMGHFtQN4-3" value="- id: Long" style="text;strokeColor=none;fillColor=none;align=left;verticalAlign=top;spacingLeft=4;spacingRight=4;overflow=hidden;rotatable=0;points=[[0,0.5],[1,0.5]];portConstraint=eastwest;whiteSpace=wrap;html=1;" parent="XYmiTkq82v3VMGHFtQN4-2" vertex="1">
          <mxGeometry y="26" width="160" height="26" as="geometry" />
        </mxCell>
        <mxCell id="XYmiTkq82v3VMGHFtQN4-4" value="- name: String" style="text;strokeColor=none;fillColor=none;align=left;verticalAlign=top;spacingLeft=4;spacingRight=4;overflow=hidden;rotatable=0;points=[[0,0.5],[1,0.5]];portConstraint=eastwest;whiteSpace=wrap;html=1;" parent="XYmiTkq82v3VMGHFtQN4-2" vertex="1">
          <mxGeometry y="52" width="160" height="26" as="geometry" />
        </mxCell>
        <mxCell id="XYmiTkq82v3VMGHFtQN4-5" value="- description: String" style="text;strokeColor=none;fillColor=none;align=left;verticalAlign=top;spacingLeft=4;spacingRight=4;overflow=hidden;rotatable=0;points=[[0,0.5],[1,0.5]];portConstraint=eastwest;whiteSpace=wrap;html=1;" parent="XYmiTkq82v3VMGHFtQN4-2" vertex="1">
          <mxGeometry y="78" width="160" height="26" as="geometry" />
        </mxCell>
        <mxCell id="XYmiTkq82v3VMGHFtQN4-6" value="" style="line;strokeWidth=1;fillColor=none;align=left;verticalAlign=middle;spacingTop=-1;spacingLeft=3;spacingRight=3;rotatable=0;labelPosition=right;points=[];portConstraint=eastwest;strokeColor=inherit;" parent="XYmiTkq82v3VMGHFtQN4-2" vertex="1">
          <mxGeometry y="104" width="160" height="8" as="geometry" />
        </mxCell>
        <mxCell id="XYmiTkq82v3VMGHFtQN4-7" value="// getter &amp;amp; setter" style="text;strokeColor=none;fillColor=none;align=left;verticalAlign=top;spacingLeft=4;spacingRight=4;overflow=hidden;rotatable=0;points=[[0,0.5],[1,0.5]];portConstraint=eastwest;whiteSpace=wrap;html=1;" parent="XYmiTkq82v3VMGHFtQN4-2" vertex="1">
          <mxGeometry y="112" width="160" height="26" as="geometry" />
        </mxCell>
        <mxCell id="XYmiTkq82v3VMGHFtQN4-8" value="Permission" style="swimlane;fontStyle=1;align=center;verticalAlign=top;childLayout=stackLayout;horizontal=1;startSize=26;horizontalStack=0;resizeParent=1;resizeParentMax=0;resizeLast=0;collapsible=1;marginBottom=0;whiteSpace=wrap;html=1;" parent="1" vertex="1">
          <mxGeometry x="-460" y="1959" width="160" height="138" as="geometry" />
        </mxCell>
        <mxCell id="XYmiTkq82v3VMGHFtQN4-9" value="- id: long" style="text;strokeColor=none;fillColor=none;align=left;verticalAlign=top;spacingLeft=4;spacingRight=4;overflow=hidden;rotatable=0;points=[[0,0.5],[1,0.5]];portConstraint=eastwest;whiteSpace=wrap;html=1;" parent="XYmiTkq82v3VMGHFtQN4-8" vertex="1">
          <mxGeometry y="26" width="160" height="26" as="geometry" />
        </mxCell>
        <mxCell id="XYmiTkq82v3VMGHFtQN4-10" value="- action: string" style="text;strokeColor=none;fillColor=none;align=left;verticalAlign=top;spacingLeft=4;spacingRight=4;overflow=hidden;rotatable=0;points=[[0,0.5],[1,0.5]];portConstraint=eastwest;whiteSpace=wrap;html=1;" parent="XYmiTkq82v3VMGHFtQN4-8" vertex="1">
          <mxGeometry y="52" width="160" height="26" as="geometry" />
        </mxCell>
        <mxCell id="XYmiTkq82v3VMGHFtQN4-11" value="- description: string" style="text;strokeColor=none;fillColor=none;align=left;verticalAlign=top;spacingLeft=4;spacingRight=4;overflow=hidden;rotatable=0;points=[[0,0.5],[1,0.5]];portConstraint=eastwest;whiteSpace=wrap;html=1;" parent="XYmiTkq82v3VMGHFtQN4-8" vertex="1">
          <mxGeometry y="78" width="160" height="26" as="geometry" />
        </mxCell>
        <mxCell id="XYmiTkq82v3VMGHFtQN4-12" value="" style="line;strokeWidth=1;fillColor=none;align=left;verticalAlign=middle;spacingTop=-1;spacingLeft=3;spacingRight=3;rotatable=0;labelPosition=right;points=[];portConstraint=eastwest;strokeColor=inherit;" parent="XYmiTkq82v3VMGHFtQN4-8" vertex="1">
          <mxGeometry y="104" width="160" height="8" as="geometry" />
        </mxCell>
        <mxCell id="XYmiTkq82v3VMGHFtQN4-13" value="// getter &amp;amp; setter" style="text;strokeColor=none;fillColor=none;align=left;verticalAlign=top;spacingLeft=4;spacingRight=4;overflow=hidden;rotatable=0;points=[[0,0.5],[1,0.5]];portConstraint=eastwest;whiteSpace=wrap;html=1;" parent="XYmiTkq82v3VMGHFtQN4-8" vertex="1">
          <mxGeometry y="112" width="160" height="26" as="geometry" />
        </mxCell>
        <mxCell id="XYmiTkq82v3VMGHFtQN4-14" style="edgeStyle=orthogonalEdgeStyle;rounded=0;orthogonalLoop=1;jettySize=auto;html=1;endArrow=open;endFill=0;" parent="1" source="XYmiTkq82v3VMGHFtQN4-2" target="XYmiTkq82v3VMGHFtQN4-8" edge="1">
          <mxGeometry relative="1" as="geometry" />
        </mxCell>
        <mxCell id="XYmiTkq82v3VMGHFtQN4-21" value="SimpleUser" style="swimlane;fontStyle=1;align=center;verticalAlign=top;childLayout=stackLayout;horizontal=1;startSize=26;horizontalStack=0;resizeParent=1;resizeParentMax=0;resizeLast=0;collapsible=1;marginBottom=0;whiteSpace=wrap;html=1;" parent="1" vertex="1">
          <mxGeometry x="-167" y="1540" width="189" height="242" as="geometry" />
        </mxCell>
        <mxCell id="XYmiTkq82v3VMGHFtQN4-22" value="- id: long" style="text;strokeColor=none;fillColor=none;align=left;verticalAlign=top;spacingLeft=4;spacingRight=4;overflow=hidden;rotatable=0;points=[[0,0.5],[1,0.5]];portConstraint=eastwest;whiteSpace=wrap;html=1;" parent="XYmiTkq82v3VMGHFtQN4-21" vertex="1">
          <mxGeometry y="26" width="189" height="26" as="geometry" />
        </mxCell>
        <mxCell id="XYmiTkq82v3VMGHFtQN4-23" value="- name: string" style="text;strokeColor=none;fillColor=none;align=left;verticalAlign=top;spacingLeft=4;spacingRight=4;overflow=hidden;rotatable=0;points=[[0,0.5],[1,0.5]];portConstraint=eastwest;whiteSpace=wrap;html=1;" parent="XYmiTkq82v3VMGHFtQN4-21" vertex="1">
          <mxGeometry y="52" width="189" height="26" as="geometry" />
        </mxCell>
        <mxCell id="XYmiTkq82v3VMGHFtQN4-24" value="- surname: string" style="text;strokeColor=none;fillColor=none;align=left;verticalAlign=top;spacingLeft=4;spacingRight=4;overflow=hidden;rotatable=0;points=[[0,0.5],[1,0.5]];portConstraint=eastwest;whiteSpace=wrap;html=1;" parent="XYmiTkq82v3VMGHFtQN4-21" vertex="1">
          <mxGeometry y="78" width="189" height="26" as="geometry" />
        </mxCell>
        <mxCell id="XYmiTkq82v3VMGHFtQN4-25" value="- email: string" style="text;strokeColor=none;fillColor=none;align=left;verticalAlign=top;spacingLeft=4;spacingRight=4;overflow=hidden;rotatable=0;points=[[0,0.5],[1,0.5]];portConstraint=eastwest;whiteSpace=wrap;html=1;" parent="XYmiTkq82v3VMGHFtQN4-21" vertex="1">
          <mxGeometry y="104" width="189" height="26" as="geometry" />
        </mxCell>
        <mxCell id="XYmiTkq82v3VMGHFtQN4-26" value="- password: string" style="text;strokeColor=none;fillColor=none;align=left;verticalAlign=top;spacingLeft=4;spacingRight=4;overflow=hidden;rotatable=0;points=[[0,0.5],[1,0.5]];portConstraint=eastwest;whiteSpace=wrap;html=1;" parent="XYmiTkq82v3VMGHFtQN4-21" vertex="1">
          <mxGeometry y="130" width="189" height="26" as="geometry" />
        </mxCell>
        <mxCell id="XYmiTkq82v3VMGHFtQN4-27" value="- created_at: Date" style="text;strokeColor=none;fillColor=none;align=left;verticalAlign=top;spacingLeft=4;spacingRight=4;overflow=hidden;rotatable=0;points=[[0,0.5],[1,0.5]];portConstraint=eastwest;whiteSpace=wrap;html=1;" parent="XYmiTkq82v3VMGHFtQN4-21" vertex="1">
          <mxGeometry y="156" width="189" height="26" as="geometry" />
        </mxCell>
        <mxCell id="XYmiTkq82v3VMGHFtQN4-28" value="- update_at: Date" style="text;strokeColor=none;fillColor=none;align=left;verticalAlign=top;spacingLeft=4;spacingRight=4;overflow=hidden;rotatable=0;points=[[0,0.5],[1,0.5]];portConstraint=eastwest;whiteSpace=wrap;html=1;" parent="XYmiTkq82v3VMGHFtQN4-21" vertex="1">
          <mxGeometry y="182" width="189" height="26" as="geometry" />
        </mxCell>
        <mxCell id="XYmiTkq82v3VMGHFtQN4-29" value="" style="line;strokeWidth=1;fillColor=none;align=left;verticalAlign=middle;spacingTop=-1;spacingLeft=3;spacingRight=3;rotatable=0;labelPosition=right;points=[];portConstraint=eastwest;strokeColor=inherit;" parent="XYmiTkq82v3VMGHFtQN4-21" vertex="1">
          <mxGeometry y="208" width="189" height="8" as="geometry" />
        </mxCell>
        <mxCell id="XYmiTkq82v3VMGHFtQN4-30" value="// getter &amp;amp; setter" style="text;strokeColor=none;fillColor=none;align=left;verticalAlign=top;spacingLeft=4;spacingRight=4;overflow=hidden;rotatable=0;points=[[0,0.5],[1,0.5]];portConstraint=eastwest;whiteSpace=wrap;html=1;" parent="XYmiTkq82v3VMGHFtQN4-21" vertex="1">
          <mxGeometry y="216" width="189" height="26" as="geometry" />
        </mxCell>
        <mxCell id="XYmiTkq82v3VMGHFtQN4-60" value="UserController" style="swimlane;fontStyle=1;align=center;verticalAlign=top;childLayout=stackLayout;horizontal=1;startSize=33;horizontalStack=0;resizeParent=1;resizeParentMax=0;resizeLast=0;collapsible=1;marginBottom=0;whiteSpace=wrap;html=1;" parent="1" vertex="1">
          <mxGeometry x="-790" y="2230" width="440" height="150" as="geometry" />
        </mxCell>
        <mxCell id="XYmiTkq82v3VMGHFtQN4-61" value="" style="line;strokeWidth=1;fillColor=none;align=left;verticalAlign=middle;spacingTop=-1;spacingLeft=3;spacingRight=3;rotatable=0;labelPosition=right;points=[];portConstraint=eastwest;strokeColor=inherit;" parent="XYmiTkq82v3VMGHFtQN4-60" vertex="1">
          <mxGeometry y="33" width="440" height="13" as="geometry" />
        </mxCell>
        <mxCell id="XYmiTkq82v3VMGHFtQN4-62" value="+ registerUser(UserRequestDTO): ResponseEntity&amp;lt;Response&amp;gt;" style="text;strokeColor=none;fillColor=none;align=left;verticalAlign=top;spacingLeft=4;spacingRight=4;overflow=hidden;rotatable=0;points=[[0,0.5],[1,0.5]];portConstraint=eastwest;whiteSpace=wrap;html=1;" parent="XYmiTkq82v3VMGHFtQN4-60" vertex="1">
          <mxGeometry y="46" width="440" height="26" as="geometry" />
        </mxCell>
        <mxCell id="XYmiTkq82v3VMGHFtQN4-63" value="+ getUser(long): ResponseEntity&amp;lt;Response&amp;gt;" style="text;strokeColor=none;fillColor=none;align=left;verticalAlign=top;spacingLeft=4;spacingRight=4;overflow=hidden;rotatable=0;points=[[0,0.5],[1,0.5]];portConstraint=eastwest;whiteSpace=wrap;html=1;" parent="XYmiTkq82v3VMGHFtQN4-60" vertex="1">
          <mxGeometry y="72" width="440" height="26" as="geometry" />
        </mxCell>
        <mxCell id="XYmiTkq82v3VMGHFtQN4-64" value="+ updateUser(long,UserRequestDTO): ResponseEntity&amp;lt;Response&amp;gt;" style="text;strokeColor=none;fillColor=none;align=left;verticalAlign=top;spacingLeft=4;spacingRight=4;overflow=hidden;rotatable=0;points=[[0,0.5],[1,0.5]];portConstraint=eastwest;whiteSpace=wrap;html=1;" parent="XYmiTkq82v3VMGHFtQN4-60" vertex="1">
          <mxGeometry y="98" width="440" height="26" as="geometry" />
        </mxCell>
        <mxCell id="XYmiTkq82v3VMGHFtQN4-71" value="+ deleteUser(long): ResponseEntity&amp;lt;Response&amp;gt;" style="text;strokeColor=none;fillColor=none;align=left;verticalAlign=top;spacingLeft=4;spacingRight=4;overflow=hidden;rotatable=0;points=[[0,0.5],[1,0.5]];portConstraint=eastwest;whiteSpace=wrap;html=1;" parent="XYmiTkq82v3VMGHFtQN4-60" vertex="1">
          <mxGeometry y="124" width="440" height="26" as="geometry" />
        </mxCell>
        <mxCell id="XYmiTkq82v3VMGHFtQN4-65" style="edgeStyle=orthogonalEdgeStyle;rounded=0;orthogonalLoop=1;jettySize=auto;html=1;endArrow=open;endFill=0;exitX=1;exitY=0.5;exitDx=0;exitDy=0;startArrow=none;startFill=0;" parent="1" source="XYmiTkq82v3VMGHFtQN4-63" edge="1">
          <mxGeometry relative="1" as="geometry">
            <mxPoint x="8.5" y="1990" as="sourcePoint" />
            <mxPoint x="-250" y="2315" as="targetPoint" />
            <Array as="points">
              <mxPoint x="-250" y="2315" />
            </Array>
          </mxGeometry>
        </mxCell>
        <mxCell id="XYmiTkq82v3VMGHFtQN4-66" value="UserService" style="swimlane;fontStyle=1;align=center;verticalAlign=top;childLayout=stackLayout;horizontal=1;startSize=33;horizontalStack=0;resizeParent=1;resizeParentMax=0;resizeLast=0;collapsible=1;marginBottom=0;whiteSpace=wrap;html=1;" parent="1" vertex="1">
          <mxGeometry x="-250" y="2230" width="334.5" height="202" as="geometry" />
        </mxCell>
        <mxCell id="XYmiTkq82v3VMGHFtQN4-67" value="" style="line;strokeWidth=1;fillColor=none;align=left;verticalAlign=middle;spacingTop=-1;spacingLeft=3;spacingRight=3;rotatable=0;labelPosition=right;points=[];portConstraint=eastwest;strokeColor=inherit;" parent="XYmiTkq82v3VMGHFtQN4-66" vertex="1">
          <mxGeometry y="33" width="334.5" height="13" as="geometry" />
        </mxCell>
        <mxCell id="XYmiTkq82v3VMGHFtQN4-68" value="+ registerUser(UserRequestDTO):&amp;nbsp;&lt;span style=&quot;text-align: center;&quot;&gt;UserResponseDTO&lt;/span&gt;" style="text;strokeColor=none;fillColor=none;align=left;verticalAlign=top;spacingLeft=4;spacingRight=4;overflow=hidden;rotatable=0;points=[[0,0.5],[1,0.5]];portConstraint=eastwest;whiteSpace=wrap;html=1;" parent="XYmiTkq82v3VMGHFtQN4-66" vertex="1">
          <mxGeometry y="46" width="334.5" height="26" as="geometry" />
        </mxCell>
        <mxCell id="XYmiTkq82v3VMGHFtQN4-69" value="+ getUser(long):&amp;nbsp;&lt;span style=&quot;text-align: center;&quot;&gt;UserResponseDTO&lt;/span&gt;" style="text;strokeColor=none;fillColor=none;align=left;verticalAlign=top;spacingLeft=4;spacingRight=4;overflow=hidden;rotatable=0;points=[[0,0.5],[1,0.5]];portConstraint=eastwest;whiteSpace=wrap;html=1;" parent="XYmiTkq82v3VMGHFtQN4-66" vertex="1">
          <mxGeometry y="72" width="334.5" height="26" as="geometry" />
        </mxCell>
        <mxCell id="XYmiTkq82v3VMGHFtQN4-70" value="+ updateUser(long,UserRequestDTO):&amp;nbsp;&lt;span style=&quot;text-align: center;&quot;&gt;UserResponseDTO&lt;/span&gt;" style="text;strokeColor=none;fillColor=none;align=left;verticalAlign=top;spacingLeft=4;spacingRight=4;overflow=hidden;rotatable=0;points=[[0,0.5],[1,0.5]];portConstraint=eastwest;whiteSpace=wrap;html=1;" parent="XYmiTkq82v3VMGHFtQN4-66" vertex="1">
          <mxGeometry y="98" width="334.5" height="26" as="geometry" />
        </mxCell>
        <mxCell id="XYmiTkq82v3VMGHFtQN4-85" value="+ deleteUser(long): boolean" style="text;strokeColor=none;fillColor=none;align=left;verticalAlign=top;spacingLeft=4;spacingRight=4;overflow=hidden;rotatable=0;points=[[0,0.5],[1,0.5]];portConstraint=eastwest;whiteSpace=wrap;html=1;" parent="XYmiTkq82v3VMGHFtQN4-66" vertex="1">
          <mxGeometry y="124" width="334.5" height="26" as="geometry" />
        </mxCell>
        <mxCell id="vYto8EmGIXlZfGlwnrf_-26" value="+ toDTO(User):&amp;nbsp;&lt;span style=&quot;text-align: center;&quot;&gt;UserResponseDTO&lt;/span&gt;" style="text;strokeColor=none;fillColor=none;align=left;verticalAlign=top;spacingLeft=4;spacingRight=4;overflow=hidden;rotatable=0;points=[[0,0.5],[1,0.5]];portConstraint=eastwest;whiteSpace=wrap;html=1;" parent="XYmiTkq82v3VMGHFtQN4-66" vertex="1">
          <mxGeometry y="150" width="334.5" height="26" as="geometry" />
        </mxCell>
        <mxCell id="vYto8EmGIXlZfGlwnrf_-25" value="+ toEntity(UserRequestDTO): User" style="text;strokeColor=none;fillColor=none;align=left;verticalAlign=top;spacingLeft=4;spacingRight=4;overflow=hidden;rotatable=0;points=[[0,0.5],[1,0.5]];portConstraint=eastwest;whiteSpace=wrap;html=1;" parent="XYmiTkq82v3VMGHFtQN4-66" vertex="1">
          <mxGeometry y="176" width="334.5" height="26" as="geometry" />
        </mxCell>
        <mxCell id="XYmiTkq82v3VMGHFtQN4-77" style="edgeStyle=orthogonalEdgeStyle;rounded=0;orthogonalLoop=1;jettySize=auto;html=1;endArrow=open;endFill=0;exitX=1;exitY=0.5;exitDx=0;exitDy=0;startArrow=none;startFill=0;" parent="1" source="XYmiTkq82v3VMGHFtQN4-68" edge="1">
          <mxGeometry relative="1" as="geometry">
            <mxPoint x="-415" y="2325" as="sourcePoint" />
            <mxPoint x="220" y="2295" as="targetPoint" />
            <Array as="points">
              <mxPoint x="84" y="2295" />
              <mxPoint x="220" y="2295" />
            </Array>
          </mxGeometry>
        </mxCell>
        <mxCell id="XYmiTkq82v3VMGHFtQN4-79" value="UserRepository" style="swimlane;fontStyle=1;align=center;verticalAlign=top;childLayout=stackLayout;horizontal=1;startSize=33;horizontalStack=0;resizeParent=1;resizeParentMax=0;resizeLast=0;collapsible=1;marginBottom=0;whiteSpace=wrap;html=1;" parent="1" vertex="1">
          <mxGeometry x="220" y="2256" width="334.5" height="46" as="geometry" />
        </mxCell>
        <mxCell id="XYmiTkq82v3VMGHFtQN4-80" value="" style="line;strokeWidth=1;fillColor=none;align=left;verticalAlign=middle;spacingTop=-1;spacingLeft=3;spacingRight=3;rotatable=0;labelPosition=right;points=[];portConstraint=eastwest;strokeColor=inherit;" parent="XYmiTkq82v3VMGHFtQN4-79" vertex="1">
          <mxGeometry y="33" width="334.5" height="13" as="geometry" />
        </mxCell>
        <mxCell id="vYto8EmGIXlZfGlwnrf_-27" value="UserResponseDTO" style="swimlane;fontStyle=1;align=center;verticalAlign=top;childLayout=stackLayout;horizontal=1;startSize=26;horizontalStack=0;resizeParent=1;resizeParentMax=0;resizeLast=0;collapsible=1;marginBottom=0;whiteSpace=wrap;html=1;" parent="1" vertex="1">
          <mxGeometry x="350" y="1800" width="189" height="164" as="geometry" />
        </mxCell>
        <mxCell id="vYto8EmGIXlZfGlwnrf_-37" value="- id: long" style="text;strokeColor=none;fillColor=none;align=left;verticalAlign=top;spacingLeft=4;spacingRight=4;overflow=hidden;rotatable=0;points=[[0,0.5],[1,0.5]];portConstraint=eastwest;whiteSpace=wrap;html=1;" parent="vYto8EmGIXlZfGlwnrf_-27" vertex="1">
          <mxGeometry y="26" width="189" height="26" as="geometry" />
        </mxCell>
        <mxCell id="vYto8EmGIXlZfGlwnrf_-29" value="- name: string" style="text;strokeColor=none;fillColor=none;align=left;verticalAlign=top;spacingLeft=4;spacingRight=4;overflow=hidden;rotatable=0;points=[[0,0.5],[1,0.5]];portConstraint=eastwest;whiteSpace=wrap;html=1;" parent="vYto8EmGIXlZfGlwnrf_-27" vertex="1">
          <mxGeometry y="52" width="189" height="26" as="geometry" />
        </mxCell>
        <mxCell id="vYto8EmGIXlZfGlwnrf_-30" value="- surname: string" style="text;strokeColor=none;fillColor=none;align=left;verticalAlign=top;spacingLeft=4;spacingRight=4;overflow=hidden;rotatable=0;points=[[0,0.5],[1,0.5]];portConstraint=eastwest;whiteSpace=wrap;html=1;" parent="vYto8EmGIXlZfGlwnrf_-27" vertex="1">
          <mxGeometry y="78" width="189" height="26" as="geometry" />
        </mxCell>
        <mxCell id="vYto8EmGIXlZfGlwnrf_-31" value="- email: string" style="text;strokeColor=none;fillColor=none;align=left;verticalAlign=top;spacingLeft=4;spacingRight=4;overflow=hidden;rotatable=0;points=[[0,0.5],[1,0.5]];portConstraint=eastwest;whiteSpace=wrap;html=1;" parent="vYto8EmGIXlZfGlwnrf_-27" vertex="1">
          <mxGeometry y="104" width="189" height="26" as="geometry" />
        </mxCell>
        <mxCell id="vYto8EmGIXlZfGlwnrf_-35" value="" style="line;strokeWidth=1;fillColor=none;align=left;verticalAlign=middle;spacingTop=-1;spacingLeft=3;spacingRight=3;rotatable=0;labelPosition=right;points=[];portConstraint=eastwest;strokeColor=inherit;" parent="vYto8EmGIXlZfGlwnrf_-27" vertex="1">
          <mxGeometry y="130" width="189" height="8" as="geometry" />
        </mxCell>
        <mxCell id="vYto8EmGIXlZfGlwnrf_-36" value="// getter &amp;amp; setter" style="text;strokeColor=none;fillColor=none;align=left;verticalAlign=top;spacingLeft=4;spacingRight=4;overflow=hidden;rotatable=0;points=[[0,0.5],[1,0.5]];portConstraint=eastwest;whiteSpace=wrap;html=1;" parent="vYto8EmGIXlZfGlwnrf_-27" vertex="1">
          <mxGeometry y="138" width="189" height="26" as="geometry" />
        </mxCell>
        <mxCell id="vYto8EmGIXlZfGlwnrf_-38" value="UserRequestDTO" style="swimlane;fontStyle=1;align=center;verticalAlign=top;childLayout=stackLayout;horizontal=1;startSize=26;horizontalStack=0;resizeParent=1;resizeParentMax=0;resizeLast=0;collapsible=1;marginBottom=0;whiteSpace=wrap;html=1;" parent="1" vertex="1">
          <mxGeometry x="70" y="1800" width="189" height="164" as="geometry" />
        </mxCell>
        <mxCell id="vYto8EmGIXlZfGlwnrf_-40" value="- name: string" style="text;strokeColor=none;fillColor=none;align=left;verticalAlign=top;spacingLeft=4;spacingRight=4;overflow=hidden;rotatable=0;points=[[0,0.5],[1,0.5]];portConstraint=eastwest;whiteSpace=wrap;html=1;" parent="vYto8EmGIXlZfGlwnrf_-38" vertex="1">
          <mxGeometry y="26" width="189" height="26" as="geometry" />
        </mxCell>
        <mxCell id="vYto8EmGIXlZfGlwnrf_-41" value="- surname: string" style="text;strokeColor=none;fillColor=none;align=left;verticalAlign=top;spacingLeft=4;spacingRight=4;overflow=hidden;rotatable=0;points=[[0,0.5],[1,0.5]];portConstraint=eastwest;whiteSpace=wrap;html=1;" parent="vYto8EmGIXlZfGlwnrf_-38" vertex="1">
          <mxGeometry y="52" width="189" height="26" as="geometry" />
        </mxCell>
        <mxCell id="vYto8EmGIXlZfGlwnrf_-42" value="- email: string" style="text;strokeColor=none;fillColor=none;align=left;verticalAlign=top;spacingLeft=4;spacingRight=4;overflow=hidden;rotatable=0;points=[[0,0.5],[1,0.5]];portConstraint=eastwest;whiteSpace=wrap;html=1;" parent="vYto8EmGIXlZfGlwnrf_-38" vertex="1">
          <mxGeometry y="78" width="189" height="26" as="geometry" />
        </mxCell>
        <mxCell id="vYto8EmGIXlZfGlwnrf_-43" value="- password: string" style="text;strokeColor=none;fillColor=none;align=left;verticalAlign=top;spacingLeft=4;spacingRight=4;overflow=hidden;rotatable=0;points=[[0,0.5],[1,0.5]];portConstraint=eastwest;whiteSpace=wrap;html=1;" parent="vYto8EmGIXlZfGlwnrf_-38" vertex="1">
          <mxGeometry y="104" width="189" height="26" as="geometry" />
        </mxCell>
        <mxCell id="vYto8EmGIXlZfGlwnrf_-46" value="" style="line;strokeWidth=1;fillColor=none;align=left;verticalAlign=middle;spacingTop=-1;spacingLeft=3;spacingRight=3;rotatable=0;labelPosition=right;points=[];portConstraint=eastwest;strokeColor=inherit;" parent="vYto8EmGIXlZfGlwnrf_-38" vertex="1">
          <mxGeometry y="130" width="189" height="8" as="geometry" />
        </mxCell>
        <mxCell id="vYto8EmGIXlZfGlwnrf_-47" value="// getter &amp;amp; setter" style="text;strokeColor=none;fillColor=none;align=left;verticalAlign=top;spacingLeft=4;spacingRight=4;overflow=hidden;rotatable=0;points=[[0,0.5],[1,0.5]];portConstraint=eastwest;whiteSpace=wrap;html=1;" parent="vYto8EmGIXlZfGlwnrf_-38" vertex="1">
          <mxGeometry y="138" width="189" height="26" as="geometry" />
        </mxCell>
        <mxCell id="-J50Wl-GYg0xeZ8n6TE--2" value="RoleDTO" style="swimlane;fontStyle=1;align=center;verticalAlign=top;childLayout=stackLayout;horizontal=1;startSize=26;horizontalStack=0;resizeParent=1;resizeParentMax=0;resizeLast=0;collapsible=1;marginBottom=0;whiteSpace=wrap;html=1;" vertex="1" parent="1">
          <mxGeometry x="220" y="2050" width="189" height="112" as="geometry" />
        </mxCell>
        <mxCell id="-J50Wl-GYg0xeZ8n6TE--3" value="- id: long" style="text;strokeColor=none;fillColor=none;align=left;verticalAlign=top;spacingLeft=4;spacingRight=4;overflow=hidden;rotatable=0;points=[[0,0.5],[1,0.5]];portConstraint=eastwest;whiteSpace=wrap;html=1;" vertex="1" parent="-J50Wl-GYg0xeZ8n6TE--2">
          <mxGeometry y="26" width="189" height="26" as="geometry" />
        </mxCell>
        <mxCell id="-J50Wl-GYg0xeZ8n6TE--4" value="- name: string" style="text;strokeColor=none;fillColor=none;align=left;verticalAlign=top;spacingLeft=4;spacingRight=4;overflow=hidden;rotatable=0;points=[[0,0.5],[1,0.5]];portConstraint=eastwest;whiteSpace=wrap;html=1;" vertex="1" parent="-J50Wl-GYg0xeZ8n6TE--2">
          <mxGeometry y="52" width="189" height="26" as="geometry" />
        </mxCell>
        <mxCell id="-J50Wl-GYg0xeZ8n6TE--8" value="" style="line;strokeWidth=1;fillColor=none;align=left;verticalAlign=middle;spacingTop=-1;spacingLeft=3;spacingRight=3;rotatable=0;labelPosition=right;points=[];portConstraint=eastwest;strokeColor=inherit;" vertex="1" parent="-J50Wl-GYg0xeZ8n6TE--2">
          <mxGeometry y="78" width="189" height="8" as="geometry" />
        </mxCell>
        <mxCell id="-J50Wl-GYg0xeZ8n6TE--9" value="// getter &amp;amp; setter" style="text;strokeColor=none;fillColor=none;align=left;verticalAlign=top;spacingLeft=4;spacingRight=4;overflow=hidden;rotatable=0;points=[[0,0.5],[1,0.5]];portConstraint=eastwest;whiteSpace=wrap;html=1;" vertex="1" parent="-J50Wl-GYg0xeZ8n6TE--2">
          <mxGeometry y="86" width="189" height="26" as="geometry" />
        </mxCell>
        <mxCell id="-J50Wl-GYg0xeZ8n6TE--10" value="" style="endArrow=classic;html=1;rounded=0;entryX=0.25;entryY=0;entryDx=0;entryDy=0;exitX=0.76;exitY=0.979;exitDx=0;exitDy=0;exitPerimeter=0;" edge="1" parent="1" source="vYto8EmGIXlZfGlwnrf_-47" target="-J50Wl-GYg0xeZ8n6TE--2">
          <mxGeometry width="50" height="50" relative="1" as="geometry">
            <mxPoint x="130" y="2100" as="sourcePoint" />
            <mxPoint x="180" y="2050" as="targetPoint" />
          </mxGeometry>
        </mxCell>
        <mxCell id="-J50Wl-GYg0xeZ8n6TE--11" value="" style="endArrow=classic;html=1;rounded=0;entryX=0.634;entryY=0.003;entryDx=0;entryDy=0;entryPerimeter=0;exitX=0.279;exitY=1.115;exitDx=0;exitDy=0;exitPerimeter=0;" edge="1" parent="1" source="vYto8EmGIXlZfGlwnrf_-36" target="-J50Wl-GYg0xeZ8n6TE--2">
          <mxGeometry width="50" height="50" relative="1" as="geometry">
            <mxPoint x="150" y="2050" as="sourcePoint" />
            <mxPoint x="200" y="2000" as="targetPoint" />
          </mxGeometry>
        </mxCell>
      </root>
    </mxGraphModel>
  </diagram>
  <diagram id="VKbAXbGtbRSCT-S2W8PE" name="GestioneOfferte">
    <mxGraphModel dx="2482" dy="-262" grid="1" gridSize="10" guides="1" tooltips="1" connect="1" arrows="1" fold="1" page="1" pageScale="1" pageWidth="827" pageHeight="1169" math="0" shadow="0">
      <root>
        <mxCell id="0" />
        <mxCell id="1" parent="0" />
        <mxCell id="B0i_ihtAy9WEcXib-uaZ-29" value="OfferController" style="swimlane;fontStyle=1;align=center;verticalAlign=top;childLayout=stackLayout;horizontal=1;startSize=26;horizontalStack=0;resizeParent=1;resizeParentMax=0;resizeLast=0;collapsible=1;marginBottom=0;whiteSpace=wrap;html=1;" parent="1" vertex="1">
          <mxGeometry x="-250" y="2100" width="410" height="164" as="geometry" />
        </mxCell>
        <mxCell id="B0i_ihtAy9WEcXib-uaZ-34" value="" style="line;strokeWidth=1;fillColor=none;align=left;verticalAlign=middle;spacingTop=-1;spacingLeft=3;spacingRight=3;rotatable=0;labelPosition=right;points=[];portConstraint=eastwest;strokeColor=inherit;" parent="B0i_ihtAy9WEcXib-uaZ-29" vertex="1">
          <mxGeometry y="26" width="410" height="8" as="geometry" />
        </mxCell>
        <mxCell id="LGzz3aQnjOEUviLLMndt-1" value="+ createOffer(OfferRequestDTO): ResponseEntity&amp;lt;Void&amp;gt;" style="text;strokeColor=none;fillColor=none;align=left;verticalAlign=top;spacingLeft=4;spacingRight=4;overflow=hidden;rotatable=0;points=[[0,0.5],[1,0.5]];portConstraint=eastwest;whiteSpace=wrap;html=1;" parent="B0i_ihtAy9WEcXib-uaZ-29" vertex="1">
          <mxGeometry y="34" width="410" height="26" as="geometry" />
        </mxCell>
        <mxCell id="ZA5x7oyrKVhfvgBqDh3n-1" value="+ getOffer(long): ResponseEntity&amp;lt;OfferResponseDTO&amp;gt;" style="text;strokeColor=none;fillColor=none;align=left;verticalAlign=top;spacingLeft=4;spacingRight=4;overflow=hidden;rotatable=0;points=[[0,0.5],[1,0.5]];portConstraint=eastwest;whiteSpace=wrap;html=1;" parent="B0i_ihtAy9WEcXib-uaZ-29" vertex="1">
          <mxGeometry y="60" width="410" height="26" as="geometry" />
        </mxCell>
        <mxCell id="6u5gva63luLVdkHHi3P6-1" value="+ updateOffer(long,OfferRequestDTO): ResponseEntity&amp;lt;Void&amp;gt;" style="text;strokeColor=none;fillColor=none;align=left;verticalAlign=top;spacingLeft=4;spacingRight=4;overflow=hidden;rotatable=0;points=[[0,0.5],[1,0.5]];portConstraint=eastwest;whiteSpace=wrap;html=1;" parent="B0i_ihtAy9WEcXib-uaZ-29" vertex="1">
          <mxGeometry y="86" width="410" height="26" as="geometry" />
        </mxCell>
        <mxCell id="vK6hU8bOF1vIyXqaQRZU-1" value="+ getOffersByEstateId(long): ResponseEntity&amp;lt;List&amp;lt;OfferResponseDTO&amp;gt;&amp;gt;" style="text;strokeColor=none;fillColor=none;align=left;verticalAlign=top;spacingLeft=4;spacingRight=4;overflow=hidden;rotatable=0;points=[[0,0.5],[1,0.5]];portConstraint=eastwest;whiteSpace=wrap;html=1;" parent="B0i_ihtAy9WEcXib-uaZ-29" vertex="1">
          <mxGeometry y="112" width="410" height="26" as="geometry" />
        </mxCell>
        <mxCell id="vK6hU8bOF1vIyXqaQRZU-2" value="+ getOffersByUserId(long): ResponseEntity&amp;lt;List&amp;lt;OfferResponseDTO&amp;gt;&amp;gt;" style="text;strokeColor=none;fillColor=none;align=left;verticalAlign=top;spacingLeft=4;spacingRight=4;overflow=hidden;rotatable=0;points=[[0,0.5],[1,0.5]];portConstraint=eastwest;whiteSpace=wrap;html=1;" parent="B0i_ihtAy9WEcXib-uaZ-29" vertex="1">
          <mxGeometry y="138" width="410" height="26" as="geometry" />
        </mxCell>
        <mxCell id="B0i_ihtAy9WEcXib-uaZ-36" value="Offer" style="swimlane;fontStyle=1;align=center;verticalAlign=top;childLayout=stackLayout;horizontal=1;startSize=26;horizontalStack=0;resizeParent=1;resizeParentMax=0;resizeLast=0;collapsible=1;marginBottom=0;whiteSpace=wrap;html=1;" parent="1" vertex="1">
          <mxGeometry x="320" y="1590" width="160" height="240" as="geometry" />
        </mxCell>
        <mxCell id="B0i_ihtAy9WEcXib-uaZ-37" value="- id: long" style="text;strokeColor=none;fillColor=none;align=left;verticalAlign=top;spacingLeft=4;spacingRight=4;overflow=hidden;rotatable=0;points=[[0,0.5],[1,0.5]];portConstraint=eastwest;whiteSpace=wrap;html=1;" parent="B0i_ihtAy9WEcXib-uaZ-36" vertex="1">
          <mxGeometry y="26" width="160" height="26" as="geometry" />
        </mxCell>
        <mxCell id="6RoJdMfdoCqJfFrX2EfQ-2" value="- idEstate: long" style="text;strokeColor=none;fillColor=none;align=left;verticalAlign=top;spacingLeft=4;spacingRight=4;overflow=hidden;rotatable=0;points=[[0,0.5],[1,0.5]];portConstraint=eastwest;whiteSpace=wrap;html=1;" parent="B0i_ihtAy9WEcXib-uaZ-36" vertex="1">
          <mxGeometry y="52" width="160" height="26" as="geometry" />
        </mxCell>
        <mxCell id="6RoJdMfdoCqJfFrX2EfQ-1" value="- idUser: long" style="text;strokeColor=none;fillColor=none;align=left;verticalAlign=top;spacingLeft=4;spacingRight=4;overflow=hidden;rotatable=0;points=[[0,0.5],[1,0.5]];portConstraint=eastwest;whiteSpace=wrap;html=1;" parent="B0i_ihtAy9WEcXib-uaZ-36" vertex="1">
          <mxGeometry y="78" width="160" height="24" as="geometry" />
        </mxCell>
        <mxCell id="B0i_ihtAy9WEcXib-uaZ-38" value="- price: float" style="text;strokeColor=none;fillColor=none;align=left;verticalAlign=top;spacingLeft=4;spacingRight=4;overflow=hidden;rotatable=0;points=[[0,0.5],[1,0.5]];portConstraint=eastwest;whiteSpace=wrap;html=1;" parent="B0i_ihtAy9WEcXib-uaZ-36" vertex="1">
          <mxGeometry y="102" width="160" height="26" as="geometry" />
        </mxCell>
        <mxCell id="B0i_ihtAy9WEcXib-uaZ-39" value="- status: string" style="text;strokeColor=none;fillColor=none;align=left;verticalAlign=top;spacingLeft=4;spacingRight=4;overflow=hidden;rotatable=0;points=[[0,0.5],[1,0.5]];portConstraint=eastwest;whiteSpace=wrap;html=1;" parent="B0i_ihtAy9WEcXib-uaZ-36" vertex="1">
          <mxGeometry y="128" width="160" height="26" as="geometry" />
        </mxCell>
        <mxCell id="B0i_ihtAy9WEcXib-uaZ-40" value="- created_at: string" style="text;strokeColor=none;fillColor=none;align=left;verticalAlign=top;spacingLeft=4;spacingRight=4;overflow=hidden;rotatable=0;points=[[0,0.5],[1,0.5]];portConstraint=eastwest;whiteSpace=wrap;html=1;" parent="B0i_ihtAy9WEcXib-uaZ-36" vertex="1">
          <mxGeometry y="154" width="160" height="26" as="geometry" />
        </mxCell>
        <mxCell id="DHm1jVI_vHUBjp_nEkyr-1" value="- updated_at: string" style="text;strokeColor=none;fillColor=none;align=left;verticalAlign=top;spacingLeft=4;spacingRight=4;overflow=hidden;rotatable=0;points=[[0,0.5],[1,0.5]];portConstraint=eastwest;whiteSpace=wrap;html=1;" parent="B0i_ihtAy9WEcXib-uaZ-36" vertex="1">
          <mxGeometry y="180" width="160" height="26" as="geometry" />
        </mxCell>
        <mxCell id="B0i_ihtAy9WEcXib-uaZ-41" value="" style="line;strokeWidth=1;fillColor=none;align=left;verticalAlign=middle;spacingTop=-1;spacingLeft=3;spacingRight=3;rotatable=0;labelPosition=right;points=[];portConstraint=eastwest;strokeColor=inherit;" parent="B0i_ihtAy9WEcXib-uaZ-36" vertex="1">
          <mxGeometry y="206" width="160" height="8" as="geometry" />
        </mxCell>
        <mxCell id="B0i_ihtAy9WEcXib-uaZ-42" value="// getter &amp;amp; setter" style="text;strokeColor=none;fillColor=none;align=left;verticalAlign=top;spacingLeft=4;spacingRight=4;overflow=hidden;rotatable=0;points=[[0,0.5],[1,0.5]];portConstraint=eastwest;whiteSpace=wrap;html=1;" parent="B0i_ihtAy9WEcXib-uaZ-36" vertex="1">
          <mxGeometry y="214" width="160" height="26" as="geometry" />
        </mxCell>
        <mxCell id="DHm1jVI_vHUBjp_nEkyr-2" value="OfferRequestDTO" style="swimlane;fontStyle=1;align=center;verticalAlign=top;childLayout=stackLayout;horizontal=1;startSize=26;horizontalStack=0;resizeParent=1;resizeParentMax=0;resizeLast=0;collapsible=1;marginBottom=0;whiteSpace=wrap;html=1;" parent="1" vertex="1">
          <mxGeometry x="140" y="1850" width="160" height="188" as="geometry" />
        </mxCell>
        <mxCell id="DHm1jVI_vHUBjp_nEkyr-3" value="- id: long" style="text;strokeColor=none;fillColor=none;align=left;verticalAlign=top;spacingLeft=4;spacingRight=4;overflow=hidden;rotatable=0;points=[[0,0.5],[1,0.5]];portConstraint=eastwest;whiteSpace=wrap;html=1;" parent="DHm1jVI_vHUBjp_nEkyr-2" vertex="1">
          <mxGeometry y="26" width="160" height="26" as="geometry" />
        </mxCell>
        <mxCell id="DHm1jVI_vHUBjp_nEkyr-4" value="- idEstate: long" style="text;strokeColor=none;fillColor=none;align=left;verticalAlign=top;spacingLeft=4;spacingRight=4;overflow=hidden;rotatable=0;points=[[0,0.5],[1,0.5]];portConstraint=eastwest;whiteSpace=wrap;html=1;" parent="DHm1jVI_vHUBjp_nEkyr-2" vertex="1">
          <mxGeometry y="52" width="160" height="26" as="geometry" />
        </mxCell>
        <mxCell id="DHm1jVI_vHUBjp_nEkyr-5" value="- idUser: long" style="text;strokeColor=none;fillColor=none;align=left;verticalAlign=top;spacingLeft=4;spacingRight=4;overflow=hidden;rotatable=0;points=[[0,0.5],[1,0.5]];portConstraint=eastwest;whiteSpace=wrap;html=1;" parent="DHm1jVI_vHUBjp_nEkyr-2" vertex="1">
          <mxGeometry y="78" width="160" height="24" as="geometry" />
        </mxCell>
        <mxCell id="DHm1jVI_vHUBjp_nEkyr-6" value="- price: float" style="text;strokeColor=none;fillColor=none;align=left;verticalAlign=top;spacingLeft=4;spacingRight=4;overflow=hidden;rotatable=0;points=[[0,0.5],[1,0.5]];portConstraint=eastwest;whiteSpace=wrap;html=1;" parent="DHm1jVI_vHUBjp_nEkyr-2" vertex="1">
          <mxGeometry y="102" width="160" height="26" as="geometry" />
        </mxCell>
        <mxCell id="DHm1jVI_vHUBjp_nEkyr-7" value="- status: string" style="text;strokeColor=none;fillColor=none;align=left;verticalAlign=top;spacingLeft=4;spacingRight=4;overflow=hidden;rotatable=0;points=[[0,0.5],[1,0.5]];portConstraint=eastwest;whiteSpace=wrap;html=1;" parent="DHm1jVI_vHUBjp_nEkyr-2" vertex="1">
          <mxGeometry y="128" width="160" height="26" as="geometry" />
        </mxCell>
        <mxCell id="DHm1jVI_vHUBjp_nEkyr-10" value="" style="line;strokeWidth=1;fillColor=none;align=left;verticalAlign=middle;spacingTop=-1;spacingLeft=3;spacingRight=3;rotatable=0;labelPosition=right;points=[];portConstraint=eastwest;strokeColor=inherit;" parent="DHm1jVI_vHUBjp_nEkyr-2" vertex="1">
          <mxGeometry y="154" width="160" height="8" as="geometry" />
        </mxCell>
        <mxCell id="DHm1jVI_vHUBjp_nEkyr-11" value="// getter &amp;amp; setter" style="text;strokeColor=none;fillColor=none;align=left;verticalAlign=top;spacingLeft=4;spacingRight=4;overflow=hidden;rotatable=0;points=[[0,0.5],[1,0.5]];portConstraint=eastwest;whiteSpace=wrap;html=1;" parent="DHm1jVI_vHUBjp_nEkyr-2" vertex="1">
          <mxGeometry y="162" width="160" height="26" as="geometry" />
        </mxCell>
        <mxCell id="mMg6-vR2za0qOJYH5mtR-1" value="OfferResponseDTO" style="swimlane;fontStyle=1;align=center;verticalAlign=top;childLayout=stackLayout;horizontal=1;startSize=26;horizontalStack=0;resizeParent=1;resizeParentMax=0;resizeLast=0;collapsible=1;marginBottom=0;whiteSpace=wrap;html=1;" parent="1" vertex="1">
          <mxGeometry x="530" y="1850" width="160" height="190" as="geometry" />
        </mxCell>
        <mxCell id="mMg6-vR2za0qOJYH5mtR-2" value="- id: long" style="text;strokeColor=none;fillColor=none;align=left;verticalAlign=top;spacingLeft=4;spacingRight=4;overflow=hidden;rotatable=0;points=[[0,0.5],[1,0.5]];portConstraint=eastwest;whiteSpace=wrap;html=1;" parent="mMg6-vR2za0qOJYH5mtR-1" vertex="1">
          <mxGeometry y="26" width="160" height="26" as="geometry" />
        </mxCell>
        <mxCell id="mMg6-vR2za0qOJYH5mtR-5" value="- price: float" style="text;strokeColor=none;fillColor=none;align=left;verticalAlign=top;spacingLeft=4;spacingRight=4;overflow=hidden;rotatable=0;points=[[0,0.5],[1,0.5]];portConstraint=eastwest;whiteSpace=wrap;html=1;" parent="mMg6-vR2za0qOJYH5mtR-1" vertex="1">
          <mxGeometry y="52" width="160" height="26" as="geometry" />
        </mxCell>
        <mxCell id="mMg6-vR2za0qOJYH5mtR-6" value="- status: string" style="text;strokeColor=none;fillColor=none;align=left;verticalAlign=top;spacingLeft=4;spacingRight=4;overflow=hidden;rotatable=0;points=[[0,0.5],[1,0.5]];portConstraint=eastwest;whiteSpace=wrap;html=1;" parent="mMg6-vR2za0qOJYH5mtR-1" vertex="1">
          <mxGeometry y="78" width="160" height="26" as="geometry" />
        </mxCell>
        <mxCell id="mMg6-vR2za0qOJYH5mtR-7" value="- created_at: string" style="text;strokeColor=none;fillColor=none;align=left;verticalAlign=top;spacingLeft=4;spacingRight=4;overflow=hidden;rotatable=0;points=[[0,0.5],[1,0.5]];portConstraint=eastwest;whiteSpace=wrap;html=1;" parent="mMg6-vR2za0qOJYH5mtR-1" vertex="1">
          <mxGeometry y="104" width="160" height="26" as="geometry" />
        </mxCell>
        <mxCell id="mMg6-vR2za0qOJYH5mtR-8" value="- updated_at: string" style="text;strokeColor=none;fillColor=none;align=left;verticalAlign=top;spacingLeft=4;spacingRight=4;overflow=hidden;rotatable=0;points=[[0,0.5],[1,0.5]];portConstraint=eastwest;whiteSpace=wrap;html=1;" parent="mMg6-vR2za0qOJYH5mtR-1" vertex="1">
          <mxGeometry y="130" width="160" height="26" as="geometry" />
        </mxCell>
        <mxCell id="mMg6-vR2za0qOJYH5mtR-9" value="" style="line;strokeWidth=1;fillColor=none;align=left;verticalAlign=middle;spacingTop=-1;spacingLeft=3;spacingRight=3;rotatable=0;labelPosition=right;points=[];portConstraint=eastwest;strokeColor=inherit;" parent="mMg6-vR2za0qOJYH5mtR-1" vertex="1">
          <mxGeometry y="156" width="160" height="8" as="geometry" />
        </mxCell>
        <mxCell id="mMg6-vR2za0qOJYH5mtR-10" value="// getter &amp;amp; setter" style="text;strokeColor=none;fillColor=none;align=left;verticalAlign=top;spacingLeft=4;spacingRight=4;overflow=hidden;rotatable=0;points=[[0,0.5],[1,0.5]];portConstraint=eastwest;whiteSpace=wrap;html=1;" parent="mMg6-vR2za0qOJYH5mtR-1" vertex="1">
          <mxGeometry y="164" width="160" height="26" as="geometry" />
        </mxCell>
        <mxCell id="vK6hU8bOF1vIyXqaQRZU-3" value="OfferService" style="swimlane;fontStyle=1;align=center;verticalAlign=top;childLayout=stackLayout;horizontal=1;startSize=26;horizontalStack=0;resizeParent=1;resizeParentMax=0;resizeLast=0;collapsible=1;marginBottom=0;whiteSpace=wrap;html=1;" parent="1" vertex="1">
          <mxGeometry x="220" y="2100" width="410" height="216" as="geometry" />
        </mxCell>
        <mxCell id="vK6hU8bOF1vIyXqaQRZU-4" value="" style="line;strokeWidth=1;fillColor=none;align=left;verticalAlign=middle;spacingTop=-1;spacingLeft=3;spacingRight=3;rotatable=0;labelPosition=right;points=[];portConstraint=eastwest;strokeColor=inherit;" parent="vK6hU8bOF1vIyXqaQRZU-3" vertex="1">
          <mxGeometry y="26" width="410" height="8" as="geometry" />
        </mxCell>
        <mxCell id="vK6hU8bOF1vIyXqaQRZU-5" value="+ createOffer(OfferRequestDTO): OffertResponseDTO" style="text;strokeColor=none;fillColor=none;align=left;verticalAlign=top;spacingLeft=4;spacingRight=4;overflow=hidden;rotatable=0;points=[[0,0.5],[1,0.5]];portConstraint=eastwest;whiteSpace=wrap;html=1;" parent="vK6hU8bOF1vIyXqaQRZU-3" vertex="1">
          <mxGeometry y="34" width="410" height="26" as="geometry" />
        </mxCell>
        <mxCell id="vK6hU8bOF1vIyXqaQRZU-6" value="+ getOffer(long): OfferResponseDTO" style="text;strokeColor=none;fillColor=none;align=left;verticalAlign=top;spacingLeft=4;spacingRight=4;overflow=hidden;rotatable=0;points=[[0,0.5],[1,0.5]];portConstraint=eastwest;whiteSpace=wrap;html=1;" parent="vK6hU8bOF1vIyXqaQRZU-3" vertex="1">
          <mxGeometry y="60" width="410" height="26" as="geometry" />
        </mxCell>
        <mxCell id="vK6hU8bOF1vIyXqaQRZU-7" value="+ updateOffer(long,OfferRequestDTO): OffertResponseDTO" style="text;strokeColor=none;fillColor=none;align=left;verticalAlign=top;spacingLeft=4;spacingRight=4;overflow=hidden;rotatable=0;points=[[0,0.5],[1,0.5]];portConstraint=eastwest;whiteSpace=wrap;html=1;" parent="vK6hU8bOF1vIyXqaQRZU-3" vertex="1">
          <mxGeometry y="86" width="410" height="26" as="geometry" />
        </mxCell>
        <mxCell id="vK6hU8bOF1vIyXqaQRZU-8" value="+ getOffersByEstateId(long): List&amp;lt;OfferResponseDTO&amp;gt;" style="text;strokeColor=none;fillColor=none;align=left;verticalAlign=top;spacingLeft=4;spacingRight=4;overflow=hidden;rotatable=0;points=[[0,0.5],[1,0.5]];portConstraint=eastwest;whiteSpace=wrap;html=1;" parent="vK6hU8bOF1vIyXqaQRZU-3" vertex="1">
          <mxGeometry y="112" width="410" height="26" as="geometry" />
        </mxCell>
        <mxCell id="vK6hU8bOF1vIyXqaQRZU-9" value="+ getOffersByUserId(long): List&amp;lt;OfferResponseDTO&amp;gt;" style="text;strokeColor=none;fillColor=none;align=left;verticalAlign=top;spacingLeft=4;spacingRight=4;overflow=hidden;rotatable=0;points=[[0,0.5],[1,0.5]];portConstraint=eastwest;whiteSpace=wrap;html=1;" parent="vK6hU8bOF1vIyXqaQRZU-3" vertex="1">
          <mxGeometry y="138" width="410" height="26" as="geometry" />
        </mxCell>
        <mxCell id="mL-K4P1eNKylMIGWRvgR-2" value="+ toDTO(Offer): OfferResponseDTO" style="text;strokeColor=none;fillColor=none;align=left;verticalAlign=top;spacingLeft=4;spacingRight=4;overflow=hidden;rotatable=0;points=[[0,0.5],[1,0.5]];portConstraint=eastwest;whiteSpace=wrap;html=1;" parent="vK6hU8bOF1vIyXqaQRZU-3" vertex="1">
          <mxGeometry y="164" width="410" height="26" as="geometry" />
        </mxCell>
        <mxCell id="mL-K4P1eNKylMIGWRvgR-1" value="+ toEntity(OfferRequestDTO): Offer" style="text;strokeColor=none;fillColor=none;align=left;verticalAlign=top;spacingLeft=4;spacingRight=4;overflow=hidden;rotatable=0;points=[[0,0.5],[1,0.5]];portConstraint=eastwest;whiteSpace=wrap;html=1;" parent="vK6hU8bOF1vIyXqaQRZU-3" vertex="1">
          <mxGeometry y="190" width="410" height="26" as="geometry" />
        </mxCell>
        <mxCell id="I1MPsD0teWwnhYXTaSTh-1" value="OfferRepository" style="swimlane;fontStyle=1;align=center;verticalAlign=top;childLayout=stackLayout;horizontal=1;startSize=26;horizontalStack=0;resizeParent=1;resizeParentMax=0;resizeLast=0;collapsible=1;marginBottom=0;whiteSpace=wrap;html=1;" parent="1" vertex="1">
          <mxGeometry x="740" y="2160" width="410" height="86" as="geometry" />
        </mxCell>
        <mxCell id="I1MPsD0teWwnhYXTaSTh-2" value="" style="line;strokeWidth=1;fillColor=none;align=left;verticalAlign=middle;spacingTop=-1;spacingLeft=3;spacingRight=3;rotatable=0;labelPosition=right;points=[];portConstraint=eastwest;strokeColor=inherit;" parent="I1MPsD0teWwnhYXTaSTh-1" vertex="1">
          <mxGeometry y="26" width="410" height="8" as="geometry" />
        </mxCell>
        <mxCell id="I1MPsD0teWwnhYXTaSTh-6" value="+ getOffersByEstateId(long): List&amp;lt;Offer&amp;gt;" style="text;strokeColor=none;fillColor=none;align=left;verticalAlign=top;spacingLeft=4;spacingRight=4;overflow=hidden;rotatable=0;points=[[0,0.5],[1,0.5]];portConstraint=eastwest;whiteSpace=wrap;html=1;" parent="I1MPsD0teWwnhYXTaSTh-1" vertex="1">
          <mxGeometry y="34" width="410" height="26" as="geometry" />
        </mxCell>
        <mxCell id="I1MPsD0teWwnhYXTaSTh-7" value="+ getOffersByUserId(long): List&amp;lt;Offer&amp;gt;" style="text;strokeColor=none;fillColor=none;align=left;verticalAlign=top;spacingLeft=4;spacingRight=4;overflow=hidden;rotatable=0;points=[[0,0.5],[1,0.5]];portConstraint=eastwest;whiteSpace=wrap;html=1;" parent="I1MPsD0teWwnhYXTaSTh-1" vertex="1">
          <mxGeometry y="60" width="410" height="26" as="geometry" />
        </mxCell>
        <mxCell id="58kedKnk74mNVeN9uMT5-1" style="edgeStyle=orthogonalEdgeStyle;rounded=0;orthogonalLoop=1;jettySize=auto;html=1;entryX=0;entryY=0.5;entryDx=0;entryDy=0;" edge="1" parent="1" source="6u5gva63luLVdkHHi3P6-1" target="vK6hU8bOF1vIyXqaQRZU-7">
          <mxGeometry relative="1" as="geometry" />
        </mxCell>
        <mxCell id="58kedKnk74mNVeN9uMT5-2" style="edgeStyle=orthogonalEdgeStyle;rounded=0;orthogonalLoop=1;jettySize=auto;html=1;" edge="1" parent="1" source="vK6hU8bOF1vIyXqaQRZU-7" target="I1MPsD0teWwnhYXTaSTh-7">
          <mxGeometry relative="1" as="geometry" />
        </mxCell>
      </root>
    </mxGraphModel>
  </diagram>
</mxfile>
